<?xml version="1.0" encoding="UTF-8" standalone="no"?>
<!-- Created with Inkscape (http://www.inkscape.org/) -->

<svg
   width="297mm"
   height="210mm"
   viewBox="0 0 1122.5197 793.70081"
   version="1.1"
   id="svg1"
   inkscape:version="1.3 (0e150ed6c4, 2023-07-21)"
   sodipodi:docname="blur_corner.svg"
   inkscape:export-filename="simple_blur.png"
   inkscape:export-xdpi="96"
   inkscape:export-ydpi="96"
   xmlns:inkscape="http://www.inkscape.org/namespaces/inkscape"
   xmlns:sodipodi="http://sodipodi.sourceforge.net/DTD/sodipodi-0.dtd"
   xmlns:xlink="http://www.w3.org/1999/xlink"
   xmlns="http://www.w3.org/2000/svg"
   xmlns:svg="http://www.w3.org/2000/svg"
   xmlns:ns15="http://www.iki.fi/pav/software/textext/">
  <sodipodi:namedview
     id="namedview1"
     pagecolor="#505050"
     bordercolor="#ffffff"
     borderopacity="1"
     inkscape:showpageshadow="0"
     inkscape:pageopacity="0"
     inkscape:pagecheckerboard="1"
     inkscape:deskcolor="#505050"
     inkscape:document-units="mm"
     showgrid="true"
     inkscape:zoom="1.5964085"
     inkscape:cx="975.31428"
     inkscape:cy="217.67611"
     inkscape:window-width="3814"
     inkscape:window-height="2107"
     inkscape:window-x="4490"
     inkscape:window-y="42"
     inkscape:window-maximized="1"
     inkscape:current-layer="layer1">
    <inkscape:grid
       id="grid1"
       units="cm"
       originx="0"
       originy="0"
       spacingx="151.18111"
       spacingy="151.18111"
       empcolor="#0099e5"
       empopacity="0.30196078"
       color="#0099e5"
       opacity="0.14901961"
       empspacing="5"
       dotted="false"
       gridanglex="30"
       gridanglez="30"
       visible="true" />
  </sodipodi:namedview>
  <defs
     id="defs1">
    <pattern
       inkscape:collect="always"
       xlink:href="#Strips1_8"
       preserveAspectRatio="xMidYMid"
       id="pattern341"
       patternTransform="matrix(1.4142135,1.4142135,-1.4142135,1.4142135,357.99751,-46.85666)"
       x="0"
       y="0" />
    <pattern
       inkscape:collect="always"
       xlink:href="#Strips1_8"
       preserveAspectRatio="xMidYMid"
       id="pattern339"
       patternTransform="matrix(1.4142136,1.4142136,-1.4142136,1.4142136,357.99751,-46.85666)"
       x="0"
       y="0" />
    <pattern
       inkscape:collect="always"
       xlink:href="#Strips1_8"
       preserveAspectRatio="xMidYMid"
       id="pattern338"
       patternTransform="matrix(1.4142136,1.4142136,-1.4142136,1.4142136,357.99751,-46.85666)"
       x="0"
       y="0" />
    <pattern
       inkscape:collect="always"
       patternUnits="userSpaceOnUse"
       width="9"
       height="1"
       patternTransform="translate(0,0) scale(2,2)"
       preserveAspectRatio="xMidYMid"
       id="Strips1_8"
       style="fill:#000000"
       inkscape:stockid="Stripes 07 (1:8)"
       inkscape:isstock="true"
       inkscape:label="Stripes 07 (1:8)">
      <rect
         style="stroke:none"
         x="0"
         y="-0.5"
         width="1"
         height="2"
         id="rect170" />
    </pattern>
    <clipPath
       clipPathUnits="userSpaceOnUse"
       id="clipPath314">
      <rect
         style="fill:none;stroke:#000000;stroke-width:0.999999;stroke-linecap:butt;stroke-linejoin:bevel;paint-order:stroke markers fill;stop-color:#000000"
         id="rect314"
         width="46.160622"
         height="39.922417"
         x="86.574379"
         y="420.06253" />
    </clipPath>
    <clipPath
       clipPathUnits="userSpaceOnUse"
       id="clipPath24">
      <rect
         style="fill:none;stroke:#000000;stroke-width:0.999999;stroke-linecap:butt;stroke-linejoin:bevel;paint-order:stroke markers fill;stop-color:#000000"
         id="rect24"
         width="44.999748"
         height="77.937294"
         x="251.53429"
         y="222.73541" />
    </clipPath>
    <clipPath
       clipPathUnits="userSpaceOnUse"
       id="clipPath27">
      <rect
         style="fill:none;stroke:#000000;stroke-width:0.999999;stroke-linecap:butt;stroke-linejoin:bevel;paint-order:stroke markers fill;stop-color:#000000"
         id="rect28-6"
         width="46.160622"
         height="39.922417"
         x="86.574379"
         y="420.06253" />
    </clipPath>
    <clipPath
       clipPathUnits="userSpaceOnUse"
       id="clipPath25">
      <rect
         style="fill:#ff0000;stroke:none;stroke-width:3;stroke-linecap:square;stroke-linejoin:miter;paint-order:stroke markers fill;stop-color:#000000"
         id="rect25-8"
         width="78"
         height="45.033199"
         x="763.61322"
         y="452.82422" />
    </clipPath>
  </defs>
  <g
     inkscape:label="Layer 1"
     inkscape:groupmode="layer"
     id="layer1">
    <rect
       style="fill:none;fill-opacity:1;stroke:#000000;stroke-width:1.93668"
       id="rect21"
       width="447.0004"
       height="447.0004"
       x="565.4577"
       y="178.06517" />
    <path
       style="fill:none;fill-opacity:1;stroke:#000000;stroke-width:1.93668"
       d="M 654.78941,625.29431 V 178.06384"
       id="path21" />
    <path
       style="fill:none;fill-opacity:1;stroke:#000000;stroke-width:1.93668"
       d="M 744.31607,178.22907 V 625.18574"
       id="path22" />
    <path
       style="fill:none;fill-opacity:1;stroke:#000000;stroke-width:1.93668"
       d="M 833.99799,625.14025 V 177.91537"
       id="path23" />
    <path
       style="fill:none;fill-opacity:1;stroke:#000000;stroke-width:1.93668"
       d="M 923.58817,178.30766 V 625.29379"
       id="path24" />
    <path
       style="fill:none;fill-opacity:1;stroke:#000000;stroke-width:1.93668"
       d="M 1012.6267,536.48369 H 565.12462"
       id="path25" />
    <path
       style="fill:none;fill-opacity:1;stroke:#000000;stroke-width:1.93668"
       d="M 565.39073,446.8327 H 1012.013"
       id="path26" />
    <path
       style="fill:none;fill-opacity:1;stroke:#000000;stroke-width:1.93668"
       d="M 1012.2705,357.36523 H 565.44473"
       id="path27" />
    <path
       style="fill:none;fill-opacity:1;stroke:#000000;stroke-width:1.93668"
       d="M 1012.1225,267.3919 H 565.3282"
       id="path28" />
    <path
       style="fill:#000000;fill-opacity:1;stroke:#000000;stroke-width:1.71565"
       d="M 745.3785,402.29529 V 358.7387 h 43.81898 43.81898 v 43.55659 43.55658 H 789.19748 745.3785 Z"
       id="path29" />
    <path
       style="fill:#ffffff;fill-opacity:1;stroke:#000000;stroke-width:1.71565"
       d="M 835.11557,402.29529 V 358.7387 h 43.55659 43.55659 v 43.55659 43.55658 h -43.55659 -43.55659 z"
       id="path30" />
    <path
       style="fill:#ffffff;fill-opacity:1;stroke:#000000;stroke-width:1.71565"
       d="m 835.11557,491.50758 v -43.55659 h 43.55659 43.55659 v 43.55659 43.55659 h -43.55659 -43.55659 z"
       id="path31" />
    <path
       style="fill:#ffffff;fill-opacity:1;stroke:#000000;stroke-width:1.71565"
       d="m 745.3785,491.50758 v -43.55659 h 43.81898 43.81898 v 43.55659 43.55659 H 789.19748 745.3785 Z"
       id="path32" />
    <path
       style="fill:#ffffff;fill-opacity:1;stroke:#000000;stroke-width:1.71565"
       d="m 656.16621,491.50758 v -43.55659 h 43.55659 43.55659 v 43.55659 43.55659 H 699.7228 656.16621 Z"
       id="path33" />
    <path
       style="fill:#ffffff;fill-opacity:1;stroke:#000000;stroke-width:1.71565"
       d="M 656.16621,402.29529 V 358.7387 h 43.55659 43.55659 v 43.55659 43.55658 H 699.7228 656.16621 Z"
       id="path34" />
    <path
       style="fill:#ffffff;fill-opacity:1;stroke:#000000;stroke-width:1.71565"
       d="m 656.16621,312.29583 v -43.81898 h 43.55659 43.55659 v 43.81898 43.81898 H 699.7228 656.16621 Z"
       id="path35" />
    <path
       style="fill:#ffffff;fill-opacity:1;stroke:#000000;stroke-width:1.71565"
       d="m 745.3785,312.29583 v -43.81898 h 43.81898 43.81898 v 43.81898 43.81898 H 789.19748 745.3785 Z"
       id="path36" />
    <path
       style="fill:#ffffff;fill-opacity:1;stroke:#000000;stroke-width:1.71565"
       d="m 835.11557,312.29583 v -43.81898 h 43.55659 43.55659 v 43.81898 43.81898 h -43.55659 -43.55659 z"
       id="path37" />
    <path
       style="fill:#ffffff;fill-opacity:1;stroke:#000000;stroke-width:1.71565"
       d="m 745.3785,580.71987 v -43.03181 h 43.81898 43.81898 v 43.03181 43.03181 H 789.19748 745.3785 Z"
       id="path38" />
    <path
       style="fill:#ffffff;fill-opacity:1;stroke:#000000;stroke-width:1.71565"
       d="m 835.11557,580.71987 v -43.03181 h 43.55659 43.55659 v 43.03181 43.03181 h -43.55659 -43.55659 z"
       id="path39" />
    <path
       style="fill:#ffffff;fill-opacity:1;stroke:#000000;stroke-width:1.71565"
       d="m 924.85264,580.71987 v -43.03181 h 43.2942 43.29416 v 43.03181 43.03181 h -43.29416 -43.2942 z"
       id="path40" />
    <path
       style="fill:#ffffff;fill-opacity:1;stroke:#000000;stroke-width:1.71565"
       d="m 924.85264,491.50758 v -43.55659 h 43.2942 43.29416 v 43.55659 43.55659 h -43.29416 -43.2942 z"
       id="path41" />
    <path
       style="fill:#ffffff;fill-opacity:1;stroke:#000000;stroke-width:1.71565"
       d="M 924.85264,402.29529 V 358.7387 h 43.2942 43.29416 v 43.55659 43.55658 h -43.29416 -43.2942 z"
       id="path42" />
    <path
       style="fill:#ffffff;fill-opacity:1;stroke:#000000;stroke-width:1.71565"
       d="m 924.85264,312.29583 v -43.81898 h 43.2942 43.29416 v 43.81898 43.81898 h -43.29416 -43.2942 z"
       id="path43" />
    <path
       style="fill:#ffffff;fill-opacity:1;stroke:#000000;stroke-width:1.71565"
       d="m 924.85264,222.82115 v -43.5566 h 43.2942 43.29416 v 43.5566 43.55659 h -43.29416 -43.2942 z"
       id="path44" />
    <path
       style="fill:#ffffff;fill-opacity:1;stroke:#000000;stroke-width:1.71565"
       d="m 835.11557,222.82115 v -43.5566 h 43.55659 43.55659 v 43.5566 43.55659 h -43.55659 -43.55659 z"
       id="path45" />
    <path
       style="fill:#ffffff;fill-opacity:1;stroke:#000000;stroke-width:1.71565"
       d="m 745.3785,222.82115 v -43.5566 h 43.81898 43.81898 v 43.5566 43.55659 H 789.19748 745.3785 Z"
       id="path46" />
    <path
       style="fill:#ffffff;fill-opacity:1;stroke:#000000;stroke-width:1.71565"
       d="m 656.16621,222.82115 v -43.5566 h 43.55659 43.55659 v 43.5566 43.55659 H 699.7228 656.16621 Z"
       id="path47" />
    <path
       style="fill:#ffffff;fill-opacity:1;stroke:#000000;stroke-width:1.71565"
       d="m 566.42914,222.82115 v -43.5566 h 43.55658 43.5566 v 43.5566 43.55659 h -43.5566 -43.55658 z"
       id="path48" />
    <path
       style="fill:#ffffff;fill-opacity:1;stroke:#000000;stroke-width:1.71565"
       d="m 566.42914,312.29583 v -43.81898 h 43.55658 43.5566 v 43.81898 43.81898 h -43.5566 -43.55658 z"
       id="path49" />
    <path
       style="fill:#ffffff;fill-opacity:1;stroke:#000000;stroke-width:1.71565"
       d="M 566.42914,402.29529 V 358.7387 h 43.55658 43.5566 v 43.55659 43.55658 h -43.5566 -43.55658 z"
       id="path50" />
    <path
       style="fill:#ffffff;fill-opacity:1;stroke:#000000;stroke-width:1.71565"
       d="m 566.42914,491.50758 v -43.55659 h 43.55658 43.5566 v 43.55659 43.55659 h -43.5566 -43.55658 z"
       id="path51" />
    <path
       style="fill:#ffffff;fill-opacity:1;stroke:#000000;stroke-width:1.71565"
       d="m 566.42914,580.71987 v -43.03181 h 43.55658 43.5566 v 43.03181 43.03181 h -43.5566 -43.55658 z"
       id="path52" />
    <path
       style="fill:#ffffff;fill-opacity:1;stroke:#000000;stroke-width:1.71565"
       d="m 656.16621,580.71987 v -43.03181 h 43.55659 43.55659 v 43.03181 43.03181 H 699.7228 656.16621 Z"
       id="path53" />
    <use
       x="0"
       y="0"
       xlink:href="#path29"
       id="use1" />
    <use
       x="0"
       y="0"
       xlink:href="#path31"
       id="use2" />
    <use
       x="0"
       y="0"
       xlink:href="#path32"
       id="use3" />
    <use
       x="0"
       y="0"
       xlink:href="#path33"
       id="use4" />
    <use
       x="0"
       y="0"
       xlink:href="#path34"
       id="use5" />
    <use
       x="0"
       y="0"
       xlink:href="#path35"
       id="use6" />
    <use
       x="0"
       y="0"
       xlink:href="#path36"
       id="use7" />
    <use
       x="0"
       y="0"
       xlink:href="#path37"
       id="use8" />
    <path
       style="fill:#cccccc;fill-opacity:1;stroke:#000000;stroke-width:1.71565"
       d="m 656.27682,134.40857 v -43.5566 h 43.81898 43.81898 v 43.5566 43.55659 H 700.0958 656.27682 Z"
       id="use9" />
    <path
       style="fill:#cccccc;fill-opacity:1;stroke:#000000;stroke-width:1.71565"
       d="m 567.06453,134.40857 v -43.5566 h 43.55659 43.55659 v 43.5566 43.55659 h -43.55659 -43.55659 z"
       id="use10" />
    <path
       style="fill:#cccccc;fill-opacity:1;stroke:#000000;stroke-width:1.71565"
       d="m 477.32746,134.40857 v -43.5566 h 43.55658 43.5566 v 43.5566 43.55659 h -43.5566 -43.55658 z"
       id="use11" />
    <path
       style="fill:#cccccc;fill-opacity:1;stroke:#000000;stroke-width:1.71565"
       d="m 477.32746,223.88325 v -43.81898 h 43.55658 43.5566 v 43.81898 43.81898 h -43.5566 -43.55658 z"
       id="use12" />
    <path
       style="fill:#cccccc;fill-opacity:1;stroke:#000000;stroke-width:1.71565"
       d="m 477.32746,313.88271 v -43.55659 h 43.55658 43.5566 v 43.55659 43.55658 h -43.5566 -43.55658 z"
       id="use13" />
    <path
       style="fill:url(#pattern338);fill-opacity:1;stroke:#000000;stroke-width:1.71565"
       d="m 656.27682,313.88271 v -43.55659 h 43.81898 43.81898 v 43.55659 43.55658 H 700.0958 656.27682 Z"
       id="use14" />
    <path
       style="fill:url(#pattern339);fill-opacity:1;stroke:#000000;stroke-width:1.71565"
       d="m 567.06453,313.88271 v -43.55659 h 43.55659 43.55659 v 43.55659 43.55658 h -43.55659 -43.55659 z"
       id="use15" />
    <path
       style="fill:#f9f9f9;fill-opacity:1;stroke:#000000;stroke-width:1.71565"
       d="m 567.06453,223.88325 v -43.81898 h 43.55659 43.55659 v 43.81898 43.81898 h -43.55659 -43.55659 z"
       id="use16" />
    <path
       style="fill:url(#pattern341);fill-opacity:1;stroke:#000000;stroke-width:1.71565"
       d="m 656.27682,223.88325 v -43.81898 h 43.81898 43.81898 v 43.81898 43.81898 H 700.0958 656.27682 Z"
       id="use17" />
    <text
       xml:space="preserve"
       style="font-size:42.6667px;line-height:0;font-family:'Fira Code';-inkscape-font-specification:'Fira Code';letter-spacing:0px;fill:#f9f9f9;fill-opacity:1;stroke:#000000;stroke-width:3.64724;stroke-dasharray:3.64724, 10.9417"
       x="586.67853"
       y="227.42926"
       id="text356"><tspan
         sodipodi:role="line"
         id="tspan356"
         x="586.67853"
         y="227.42926" /></text>
    <circle
       style="fill:#000000;fill-opacity:1;stroke:#000000;stroke-width:3.64724418;stroke-dasharray:none;stroke-dashoffset:0"
       id="path356"
       cx="610.66815"
       cy="224.00449"
       r="17.920485" />
    <text
       xml:space="preserve"
       style="font-size:42.6667px;line-height:0;font-family:'Fira Code';-inkscape-font-specification:'Fira Code';letter-spacing:0px;fill:#000000;fill-opacity:1;stroke:#000000;stroke-width:3.64724;stroke-dasharray:none;stroke-dashoffset:0"
       x="506.18246"
       y="151.89865"
       id="text357"><tspan
         sodipodi:role="line"
         id="tspan357"
         x="506.18246"
         y="151.89865">X</tspan></text>
    <use
       x="0"
       y="0"
       xlink:href="#text357"
       id="use357"
       transform="translate(90.907644)" />
    <use
       x="0"
       y="0"
       xlink:href="#use357"
       id="use358"
       transform="translate(89.119267)" />
    <use
       x="0"
       y="0"
       xlink:href="#text357"
       id="use359"
       transform="translate(0,88.042536)" />
    <use
       x="0"
       y="0"
       xlink:href="#use359"
       id="use360"
       transform="translate(0,89.344764)" />
    <g
       transform="matrix(5.6899487,0,0,5.6899487,121.86906,203.57173)"
       ns15:version="1.9.0"
       ns15:texconverter="pdflatex"
       ns15:pdfconverter="inkscape"
       ns15:text="$\\frac{\\Sigma_{x, y} \\mathit{image}(x, y)}{\\mathbf{4}}$"
       ns15:preamble="/home/sankalp/.config/inkscape/extensions/textext/default_packages.tex"
       ns15:scale="2.0"
       ns15:alignment="middle center"
       ns15:stroke-to-path="0"
       ns15:inkscapeversion="1.3"
       id="g314"
       ns15:jacobian_sqrt="2.66666">
      <defs
         id="id-232381c3-793a-4d18-a3db-001c8d39f13b">
        <g
           id="id-45de114d-7a7e-4408-b00c-0ebc2c8ca695">
          <g
             id="id-23060b9b-a1ae-426e-b71c-883d8039dd57" />
          <g
             id="id-4444693e-1569-4aff-9e98-af93441271b9">
            <path
               d="m 2.90625,-2.265625 c 0.078125,-0.0625 0.078125,-0.078125 0.078125,-0.125 0,-0.03125 -0.046875,-0.078125 -0.046875,-0.09375 L 1.375,-4.515625 h 1.75 c 1.15625,0 1.65625,0.171875 1.828125,1.359375 H 5.1875 L 4.96875,-4.765625 H 0.6875 c -0.171875,0 -0.203125,0.015625 -0.203125,0.1875 l 1.90625,2.484375 -1.8125,1.859375 C 0.5,-0.140625 0.484375,-0.140625 0.484375,-0.09375 0.484375,0 0.578125,0 0.6875,0 H 4.96875 L 5.1875,-1.6875 H 4.953125 C 4.796875,-0.46875 4.1875,-0.40625 3.6875,-0.359375 3.453125,-0.34375 3.40625,-0.328125 3.109375,-0.328125 H 1.03125 Z m 0,0"
               id="id-d4c141da-c52a-467b-b34d-5191838b1bea" />
          </g>
          <g
             id="id-8d89771c-6e94-4fb8-bce7-a854f52ec2fc">
            <path
               d="M 2.46875,-5.21875 C 1.15625,-4.296875 0.796875,-2.8125 0.796875,-1.75 c 0,0.984375 0.296875,2.515625 1.671875,3.484375 0.0625,0 0.140625,0 0.140625,-0.078125 0,-0.046875 -0.015625,-0.0625 -0.0625,-0.109375 C 1.609375,0.703125 1.28125,-0.46875 1.28125,-1.734375 1.28125,-3.625 2,-4.546875 2.5625,-5.0625 2.59375,-5.09375 2.609375,-5.109375 2.609375,-5.140625 2.609375,-5.21875 2.53125,-5.21875 2.46875,-5.21875 Z m 0,0"
               id="id-399e348a-68fd-41e1-ad69-51afc303ed63" />
          </g>
          <g
             id="id-308a9fed-d654-4f2c-ae0f-45caa8848a7c">
            <path
               d="m 0.625,-5.21875 c -0.046875,0 -0.125,0 -0.125,0.078125 0,0.03125 0.015625,0.046875 0.0625,0.109375 0.59375,0.546875 1.265625,1.484375 1.265625,3.28125 0,1.453125 -0.453125,2.5625 -1.203125,3.234375 -0.125,0.125 -0.125,0.125 -0.125,0.171875 0,0.03125 0.015625,0.078125 0.078125,0.078125 0.09375,0 0.75,-0.453125 1.21875,-1.328125 0.296875,-0.578125 0.5,-1.328125 0.5,-2.140625 C 2.296875,-2.71875 2,-4.25 0.625,-5.21875 Z m 0,0"
               id="id-87442abc-c057-4fe9-84a8-c6520cc57887" />
          </g>
          <g
             id="id-3a3a09f8-6a06-4203-837b-5988962a1016" />
          <g
             id="id-825b104d-314f-4422-974a-8aa4f9c34da4">
            <path
               d="m 3.09375,-1.953125 c -0.234375,0.0625 -0.234375,0.28125 -0.234375,0.296875 0,0.078125 0.0625,0.203125 0.234375,0.203125 0.140625,0 0.3125,-0.125 0.3125,-0.34375 0,-0.296875 -0.328125,-0.40625 -0.59375,-0.40625 -0.328125,0 -0.546875,0.203125 -0.640625,0.34375 -0.15625,-0.28125 -0.484375,-0.34375 -0.65625,-0.34375 -0.625,0 -0.984375,0.59375 -0.984375,0.765625 0,0.078125 0.078125,0.078125 0.109375,0.078125 0.046875,0 0.078125,0 0.109375,-0.0625 0.140625,-0.484375 0.546875,-0.609375 0.734375,-0.609375 0.171875,0 0.359375,0.0625 0.359375,0.328125 0,0.125 -0.09375,0.46875 -0.265625,1.140625 -0.0625,0.28125 -0.296875,0.453125 -0.515625,0.453125 -0.03125,0 -0.171875,0 -0.296875,-0.078125 0.21875,-0.09375 0.21875,-0.28125 0.21875,-0.296875 0,-0.140625 -0.109375,-0.203125 -0.21875,-0.203125 -0.125,0 -0.296875,0.09375 -0.296875,0.328125 0,0.3125 0.328125,0.421875 0.59375,0.421875 0.265625,0 0.5,-0.171875 0.609375,-0.34375 C 1.875,0.015625 2.1875,0.0625 2.34375,0.0625 c 0.625,0 0.984375,-0.59375 0.984375,-0.78125 0,-0.0625 -0.078125,-0.0625 -0.109375,-0.0625 -0.078125,0 -0.09375,0.03125 -0.109375,0.0625 C 2.96875,-0.265625 2.59375,-0.109375 2.375,-0.109375 c -0.15625,0 -0.359375,-0.0625 -0.359375,-0.34375 0,-0.0625 0,-0.09375 0.03125,-0.265625 0.09375,-0.34375 0.21875,-0.890625 0.265625,-0.984375 0.0625,-0.125 0.234375,-0.328125 0.484375,-0.328125 0.015625,0 0.1875,0 0.296875,0.078125 z m 0,0"
               id="id-361cfbc8-2cf8-4807-884b-e30fc7a6f0a4" />
          </g>
          <g
             id="id-5580288c-b245-4e09-913f-42dfa6e3e46a">
            <path
               d="m 1.34375,-0.0625 c 0,0.46875 -0.25,0.75 -0.390625,0.859375 -0.046875,0.03125 -0.0625,0.046875 -0.0625,0.078125 0,0.03125 0.046875,0.09375 0.09375,0.09375 0.0625,0 0.53125,-0.390625 0.53125,-1.015625 0,-0.34375 -0.15625,-0.5625 -0.375,-0.5625 -0.1875,0 -0.296875,0.15625 -0.296875,0.3125 C 0.84375,-0.140625 0.953125,0 1.140625,0 1.21875,0 1.296875,-0.015625 1.34375,-0.0625 Z m 0,0"
               id="id-be83a361-1c36-41d6-9a88-be6d1165811d" />
          </g>
          <g
             id="id-8c38fce8-d31f-41e7-99d5-0a1a08869d43">
            <path
               d="M 3.296875,-1.859375 C 3.3125,-1.9375 3.3125,-1.96875 3.3125,-1.96875 c 0,-0.109375 -0.078125,-0.171875 -0.171875,-0.171875 -0.203125,0 -0.25,0.171875 -0.28125,0.296875 L 2.75,-1.421875 l -0.140625,0.625 c -0.03125,0.0625 -0.046875,0.15625 -0.0625,0.1875 0,0.03125 -0.265625,0.5 -0.6875,0.5 -0.234375,0 -0.40625,-0.109375 -0.40625,-0.4375 0,-0.265625 0.140625,-0.640625 0.28125,-1 0.03125,-0.046875 0.0625,-0.140625 0.0625,-0.21875 0,-0.25 -0.234375,-0.4375 -0.546875,-0.4375 -0.515625,0 -0.796875,0.640625 -0.796875,0.765625 0,0.078125 0.078125,0.078125 0.109375,0.078125 0.078125,0 0.078125,-0.03125 0.109375,-0.09375 0.109375,-0.34375 0.34375,-0.578125 0.5625,-0.578125 0.09375,0 0.15625,0.046875 0.15625,0.1875 0,0.09375 -0.03125,0.171875 -0.0625,0.265625 -0.25,0.59375 -0.296875,0.765625 -0.296875,0.96875 0,0.546875 0.46875,0.671875 0.796875,0.671875 0.28125,0 0.5,-0.140625 0.625,-0.25 -0.078125,0.28125 -0.125,0.5 -0.359375,0.734375 -0.125,0.109375 -0.359375,0.3125 -0.65625,0.3125 -0.09375,0 -0.28125,-0.015625 -0.390625,-0.125 0.21875,-0.0625 0.25,-0.25 0.25,-0.296875 0,-0.140625 -0.125,-0.203125 -0.21875,-0.203125 -0.15625,0 -0.328125,0.109375 -0.328125,0.34375 0,0.25 0.265625,0.4375 0.6875,0.4375 C 2,1.015625 2.671875,0.640625 2.828125,0 Z m 0,0"
               id="id-ad31172d-3901-4628-b147-9ea4b5746620" />
          </g>
          <g
             id="id-7457b286-315e-4d05-9e9e-1cd7d05ca686" />
          <g
             id="id-bd1aa46a-038d-46bf-89b6-38e4324d6aef">
            <path
               d="m 2.484375,-4.34375 c 0,-0.140625 -0.09375,-0.234375 -0.234375,-0.234375 -0.203125,0 -0.359375,0.171875 -0.359375,0.328125 0,0.125 0.09375,0.25 0.25,0.25 0.1875,0 0.34375,-0.171875 0.34375,-0.34375 z m -1.015625,2.625 c -0.046875,0.125 -0.171875,0.453125 -0.25,0.640625 -0.0625,0.1875 -0.15625,0.4375 -0.15625,0.5625 0,0.328125 0.25,0.578125 0.609375,0.578125 C 2.375,0.0625 2.6875,-0.890625 2.6875,-1 c 0,-0.09375 -0.09375,-0.09375 -0.140625,-0.09375 -0.125,0 -0.140625,0.03125 -0.171875,0.15625 -0.09375,0.328125 -0.3125,0.8125 -0.671875,0.8125 -0.171875,0 -0.171875,-0.171875 -0.171875,-0.234375 0,-0.171875 0.125,-0.46875 0.203125,-0.6875 0.078125,-0.21875 0.4375,-1.109375 0.46875,-1.21875 C 2.25,-2.375 2.25,-2.390625 2.25,-2.484375 c 0,-0.3125 -0.25,-0.59375 -0.640625,-0.59375 -0.671875,0 -1,0.953125 -1,1.078125 0,0.078125 0.09375,0.078125 0.15625,0.078125 0.078125,0 0.125,0 0.140625,-0.078125 0.234375,-0.8125 0.5625,-0.875 0.6875,-0.875 0.078125,0 0.171875,0.015625 0.171875,0.234375 0,0.15625 -0.046875,0.296875 -0.109375,0.4375 z m 0,0"
               id="id-7e8a90da-76e8-4eb7-9636-45d1602bea72" />
          </g>
          <g
             id="id-efdb25fc-f0b9-40c4-8674-297a2d13a2e5">
            <path
               d="m 3.21875,-0.609375 c -0.03125,0.15625 -0.109375,0.421875 -0.109375,0.46875 0,0.15625 0.109375,0.203125 0.21875,0.203125 0.234375,0 0.28125,-0.203125 0.3125,-0.3125 0.03125,-0.109375 0.125,-0.453125 0.171875,-0.609375 0.015625,-0.109375 0.078125,-0.375 0.109375,-0.484375 C 3.9375,-1.40625 4.03125,-1.75 4.03125,-1.8125 4.046875,-1.84375 4.265625,-2.3125 4.546875,-2.578125 4.75,-2.765625 5,-2.875 5.28125,-2.875 c 0.3125,0 0.390625,0.234375 0.390625,0.46875 0,0.40625 -0.328125,1.25 -0.453125,1.578125 -0.0625,0.171875 -0.0625,0.21875 -0.0625,0.3125 0,0.375 0.296875,0.578125 0.625,0.578125 0.6875,0 1,-0.953125 1,-1.0625 0,-0.09375 -0.078125,-0.09375 -0.140625,-0.09375 -0.125,0 -0.125,0.03125 -0.171875,0.15625 C 6.359375,-0.515625 6.109375,-0.125 5.796875,-0.125 5.703125,-0.125 5.625,-0.171875 5.625,-0.359375 c 0,-0.15625 0.0625,-0.3125 0.125,-0.46875 0.125,-0.328125 0.40625,-1.09375 0.40625,-1.46875 0,-0.546875 -0.375,-0.78125 -0.859375,-0.78125 -0.53125,0 -0.90625,0.296875 -1.1875,0.671875 -0.0625,-0.578125 -0.53125,-0.671875 -0.859375,-0.671875 -0.609375,0 -0.96875,0.421875 -1.125,0.609375 C 2.078125,-2.90625 1.703125,-3.078125 1.421875,-3.078125 1.125,-3.078125 0.96875,-2.875 0.875,-2.703125 0.71875,-2.46875 0.609375,-2.046875 0.609375,-2 c 0,0.078125 0.09375,0.078125 0.15625,0.078125 0.125,0 0.125,0 0.171875,-0.203125 0.125,-0.46875 0.25,-0.75 0.46875,-0.75 0.21875,0 0.21875,0.25 0.21875,0.328125 0,0.140625 -0.09375,0.484375 -0.140625,0.734375 l -0.203125,0.75 C 1.265625,-0.953125 1.1875,-0.6875 1.15625,-0.578125 1.125,-0.4375 1.0625,-0.1875 1.0625,-0.140625 c 0,0.15625 0.109375,0.203125 0.21875,0.203125 0.234375,0 0.28125,-0.203125 0.3125,-0.3125 0.03125,-0.109375 0.125,-0.453125 0.15625,-0.609375 0.109375,-0.4375 0.21875,-0.875 0.234375,-0.953125 0,0 0.234375,-0.53125 0.546875,-0.796875 C 2.625,-2.6875 2.859375,-2.875 3.234375,-2.875 3.5625,-2.875 3.625,-2.625 3.625,-2.390625 3.625,-2.234375 3.578125,-2.046875 3.546875,-1.875 3.5,-1.71875 3.40625,-1.359375 3.375,-1.203125 Z m 0,0"
               id="id-341b5114-ec01-4a5b-a19e-b4bb713eba43" />
          </g>
          <g
             id="id-43c9d238-8b1b-42cc-a4c1-3fb738c20832">
            <path
               d="m 3.8125,-2.578125 c 0.03125,-0.109375 0.03125,-0.125 0.03125,-0.15625 0,-0.15625 -0.109375,-0.203125 -0.21875,-0.203125 -0.234375,0 -0.296875,0.234375 -0.3125,0.25 -0.171875,-0.28125 -0.421875,-0.390625 -0.671875,-0.390625 -0.859375,0 -1.734375,0.984375 -1.734375,2 0,0.75 0.46875,1.140625 0.984375,1.140625 0.4375,0 0.8125,-0.328125 0.953125,-0.46875 C 2.9375,-0.0625 3.265625,0.0625 3.515625,0.0625 3.734375,0.0625 3.90625,-0.03125 4.0625,-0.28125 4.234375,-0.5625 4.328125,-0.96875 4.328125,-1 c 0,-0.09375 -0.09375,-0.09375 -0.140625,-0.09375 -0.125,0 -0.140625,0.015625 -0.1875,0.1875 -0.09375,0.375 -0.203125,0.78125 -0.46875,0.78125 -0.1875,0 -0.21875,-0.203125 -0.21875,-0.328125 0,-0.125 0,-0.125 0.046875,-0.296875 z m -0.921875,1.625 c -0.0625,0.21875 -0.21875,0.390625 -0.375,0.546875 -0.28125,0.25 -0.5,0.28125 -0.609375,0.28125 -0.3125,0 -0.484375,-0.296875 -0.484375,-0.65625 0,-0.296875 0.1875,-1.0625 0.375,-1.4375 0.21875,-0.421875 0.5625,-0.65625 0.84375,-0.65625 0.46875,0 0.5625,0.609375 0.5625,0.671875 0,0.015625 -0.015625,0.046875 -0.03125,0.09375 z m 0,0"
               id="id-418b2902-d6f8-480b-bbe6-724e0e7f428b" />
          </g>
          <g
             id="id-3f485c75-7464-48b1-a1bd-6729c06e2534">
            <path
               d="m 3.8125,-2.578125 c 0.015625,-0.109375 0.015625,-0.125 0.015625,-0.15625 0,-0.15625 -0.109375,-0.203125 -0.21875,-0.203125 -0.140625,0 -0.25,0.09375 -0.296875,0.234375 -0.171875,-0.25 -0.40625,-0.375 -0.6875,-0.375 -0.84375,0 -1.71875,0.984375 -1.71875,1.953125 0,0.640625 0.40625,1.125 1,1.125 C 2.25,0 2.546875,-0.1875 2.734375,-0.34375 2.703125,-0.265625 2.515625,0.5 2.515625,0.515625 2.453125,0.65625 2.203125,1.21875 1.484375,1.21875 c -0.09375,0 -0.34375,0 -0.515625,-0.0625 C 1.140625,1.0625 1.140625,0.890625 1.140625,0.875 c 0,-0.140625 -0.09375,-0.234375 -0.25,-0.234375 -0.171875,0 -0.34375,0.140625 -0.34375,0.375 0,0.375 0.4375,0.40625 0.921875,0.40625 1,0 1.46875,-0.53125 1.578125,-0.96875 z m -0.921875,1.59375 C 2.84375,-0.765625 2.375,-0.1875 1.921875,-0.1875 c -0.3125,0 -0.484375,-0.296875 -0.484375,-0.65625 0,-0.296875 0.171875,-1.078125 0.390625,-1.4375 0.25,-0.421875 0.5625,-0.59375 0.796875,-0.59375 0.484375,0 0.5625,0.59375 0.5625,0.65625 L 3.171875,-2.125 Z m 0,0"
               id="id-6f74722a-a99f-471e-aa99-6268c9300769" />
          </g>
          <g
             id="id-bda20831-88e4-4ff8-9cde-c0a0ce983f3f">
            <path
               d="m 2,-1.59375 c 0.296875,0 1.671875,0 1.671875,-0.859375 0,-0.390625 -0.359375,-0.625 -0.84375,-0.625 -0.78125,0 -1.890625,0.625 -1.890625,1.859375 0,0.734375 0.4375,1.28125 1.1875,1.28125 1.109375,0 1.640625,-0.640625 1.640625,-0.734375 0,-0.0625 -0.09375,-0.171875 -0.15625,-0.171875 -0.03125,0 -0.0625,0.015625 -0.109375,0.078125 -0.421875,0.5 -1.03125,0.640625 -1.375,0.640625 -0.453125,0 -0.640625,-0.390625 -0.640625,-0.828125 0,-0.203125 0.03125,-0.421875 0.078125,-0.640625 z M 1.625,-1.78125 C 1.9375,-2.859375 2.75,-2.875 2.828125,-2.875 c 0.296875,0 0.515625,0.15625 0.515625,0.40625 0,0.6875 -1.125,0.6875 -1.390625,0.6875 z m 0,0"
               id="id-905fb3c4-d71b-4a8b-9f97-3419bbfa1ea7" />
          </g>
          <g
             id="id-2a093fe8-97ef-4a57-a5d3-77f31ea792f1" />
          <g
             id="id-9def7b2b-dd81-48a7-ac28-72ce9756cd78">
            <path
               d="M 1.734375,-0.734375 C 1.671875,-0.5 1.4375,-0.125 1.078125,-0.125 c -0.015625,0 -0.234375,0 -0.375,-0.09375 0.28125,-0.09375 0.3125,-0.34375 0.3125,-0.390625 0,-0.15625 -0.125,-0.25 -0.28125,-0.25 -0.203125,0 -0.40625,0.15625 -0.40625,0.421875 0,0.34375 0.390625,0.5 0.734375,0.5 0.328125,0 0.609375,-0.1875 0.78125,-0.484375 C 2.015625,-0.0625 2.390625,0.0625 2.671875,0.0625 c 0.8125,0 1.234375,-0.859375 1.234375,-1.0625 0,-0.09375 -0.09375,-0.09375 -0.109375,-0.09375 -0.109375,0 -0.109375,0.046875 -0.140625,0.125 -0.140625,0.484375 -0.5625,0.84375 -0.953125,0.84375 -0.28125,0 -0.421875,-0.1875 -0.421875,-0.453125 0,-0.1875 0.171875,-0.8125 0.359375,-1.59375 C 2.78125,-2.703125 3.09375,-2.875 3.328125,-2.875 c 0.015625,0 0.21875,0 0.375,0.09375 -0.21875,0.0625 -0.3125,0.265625 -0.3125,0.390625 0,0.140625 0.125,0.25 0.28125,0.25 0.15625,0 0.390625,-0.125 0.390625,-0.421875 0,-0.390625 -0.453125,-0.515625 -0.71875,-0.515625 -0.359375,0 -0.640625,0.234375 -0.78125,0.5 -0.125,-0.28125 -0.453125,-0.5 -0.84375,-0.5 C 0.9375,-3.078125 0.5,-2.21875 0.5,-2 c 0,0.078125 0.09375,0.078125 0.109375,0.078125 0.09375,0 0.09375,-0.015625 0.140625,-0.109375 C 0.921875,-2.578125 1.359375,-2.875 1.703125,-2.875 1.9375,-2.875 2.125,-2.75 2.125,-2.421875 2.125,-2.28125 2.03125,-1.9375 1.96875,-1.6875 Z m 0,0"
               id="id-658f7a9b-5907-434f-ade7-feeb1153b6b8" />
          </g>
          <g
             id="id-e9658275-2cd8-4d99-be0e-b57ed9c20944">
            <path
               d="m 1.46875,-0.109375 c 0,0.375 -0.0625,0.828125 -0.546875,1.265625 C 0.90625,1.1875 0.875,1.21875 0.875,1.25 c 0,0.046875 0.0625,0.09375 0.09375,0.09375 0.109375,0 0.703125,-0.5625 0.703125,-1.390625 0,-0.421875 -0.171875,-0.75 -0.5,-0.75 -0.21875,0 -0.390625,0.171875 -0.390625,0.390625 C 0.78125,-0.1875 0.9375,0 1.1875,0 1.359375,0 1.46875,-0.109375 1.46875,-0.109375 Z m 0,0"
               id="id-f2afb423-f4a7-40e6-b896-13aef0a6edb4" />
          </g>
          <g
             id="id-c69947d7-4af2-47dc-b210-748be8058f47">
            <path
               d="M 3.875,-2.625 C 3.90625,-2.71875 3.90625,-2.734375 3.90625,-2.78125 3.90625,-2.921875 3.796875,-3 3.671875,-3 3.59375,-3 3.46875,-2.96875 3.390625,-2.84375 3.359375,-2.796875 3.3125,-2.578125 3.28125,-2.4375 L 3.125,-1.859375 c -0.03125,0.171875 -0.25,1.046875 -0.28125,1.125 0,0 -0.3125,0.609375 -0.84375,0.609375 -0.484375,0 -0.484375,-0.453125 -0.484375,-0.578125 0,-0.375 0.15625,-0.8125 0.375,-1.359375 C 1.96875,-2.28125 2,-2.359375 2,-2.484375 2,-2.8125 1.71875,-3.078125 1.34375,-3.078125 0.640625,-3.078125 0.328125,-2.125 0.328125,-2 c 0,0.078125 0.09375,0.078125 0.125,0.078125 0.09375,0 0.09375,-0.03125 0.125,-0.109375 C 0.75,-2.609375 1.046875,-2.875 1.328125,-2.875 1.4375,-2.875 1.5,-2.796875 1.5,-2.640625 c 0,0.171875 -0.0625,0.3125 -0.09375,0.40625 C 1.0625,-1.375 1,-1.125 1,-0.8125 1,-0.703125 1,-0.375 1.265625,-0.140625 1.484375,0.03125 1.78125,0.0625 1.96875,0.0625 2.25,0.0625 2.5,-0.03125 2.71875,-0.25 2.640625,0.140625 2.5625,0.4375 2.265625,0.78125 2.078125,1 1.796875,1.21875 1.421875,1.21875 c -0.046875,0 -0.375,0 -0.515625,-0.21875 0.375,-0.046875 0.375,-0.375 0.375,-0.390625 0,-0.21875 -0.203125,-0.265625 -0.265625,-0.265625 -0.171875,0 -0.40625,0.140625 -0.40625,0.46875 0,0.34375 0.328125,0.609375 0.828125,0.609375 C 2.140625,1.421875 3,0.875 3.21875,0 Z m 0,0"
               id="id-6cc0f77e-65e6-4674-b0a8-f09bc4adc557" />
          </g>
          <g
             id="id-376067ce-a34f-42df-8b16-e8e9b29792c4" />
          <g
             id="id-1f36637d-fb2f-4837-9fc2-2ad8df739152">
            <path
               d="M 4.21875,-1.078125 V -1.46875 h -0.75 V -4.375 c 0,-0.203125 -0.046875,-0.234375 -0.25,-0.234375 H 3.109375 c -0.125,0 -0.1875,0 -0.265625,0.09375 l -2.5625,3.046875 v 0.390625 h 2.234375 v 0.6875 h -0.875 V 0 c 0.34375,-0.03125 0.96875,-0.03125 1.328125,-0.03125 0.15625,0 1.078125,0.015625 1.25,0.03125 v -0.390625 h -0.75 v -0.6875 z m -1.625,-2.578125 v 2.1875 H 0.765625 Z m 0,0"
               id="id-aef990bc-fb7c-496b-8020-aa83b1819b83" />
          </g>
        </g>
      </defs>
      <g
         fill="#000000"
         fill-opacity="1"
         id="id-02bb1229-cf77-422c-9301-e63b1f26ae88"
         transform="translate(-149.906,-124.813)">
        <g
           transform="translate(149.908,130.032)"
           id="g7170">
          <path
             d="m 2.90625,-2.265625 c 0.078125,-0.0625 0.078125,-0.078125 0.078125,-0.125 0,-0.03125 -0.046875,-0.078125 -0.046875,-0.09375 L 1.375,-4.515625 h 1.75 c 1.15625,0 1.65625,0.171875 1.828125,1.359375 H 5.1875 L 4.96875,-4.765625 H 0.6875 c -0.171875,0 -0.203125,0.015625 -0.203125,0.1875 l 1.90625,2.484375 -1.8125,1.859375 C 0.5,-0.140625 0.484375,-0.140625 0.484375,-0.09375 0.484375,0 0.578125,0 0.6875,0 H 4.96875 L 5.1875,-1.6875 H 4.953125 C 4.796875,-0.46875 4.1875,-0.40625 3.6875,-0.359375 3.453125,-0.34375 3.40625,-0.328125 3.109375,-0.328125 H 1.03125 Z m 0,0"
             id="id-ba8440cd-cd60-49c2-a797-80144c469ab7" />
        </g>
      </g>
      <g
         fill="#000000"
         fill-opacity="1"
         id="id-5c14011b-d15f-415d-94b2-de9c6f5b813d"
         transform="translate(-149.906,-124.813)">
        <g
           transform="translate(155.595,131.029)"
           id="g5887">
          <path
             d="m 3.09375,-1.953125 c -0.234375,0.0625 -0.234375,0.28125 -0.234375,0.296875 0,0.078125 0.0625,0.203125 0.234375,0.203125 0.140625,0 0.3125,-0.125 0.3125,-0.34375 0,-0.296875 -0.328125,-0.40625 -0.59375,-0.40625 -0.328125,0 -0.546875,0.203125 -0.640625,0.34375 -0.15625,-0.28125 -0.484375,-0.34375 -0.65625,-0.34375 -0.625,0 -0.984375,0.59375 -0.984375,0.765625 0,0.078125 0.078125,0.078125 0.109375,0.078125 0.046875,0 0.078125,0 0.109375,-0.0625 0.140625,-0.484375 0.546875,-0.609375 0.734375,-0.609375 0.171875,0 0.359375,0.0625 0.359375,0.328125 0,0.125 -0.09375,0.46875 -0.265625,1.140625 -0.0625,0.28125 -0.296875,0.453125 -0.515625,0.453125 -0.03125,0 -0.171875,0 -0.296875,-0.078125 0.21875,-0.09375 0.21875,-0.28125 0.21875,-0.296875 0,-0.140625 -0.109375,-0.203125 -0.21875,-0.203125 -0.125,0 -0.296875,0.09375 -0.296875,0.328125 0,0.3125 0.328125,0.421875 0.59375,0.421875 0.265625,0 0.5,-0.171875 0.609375,-0.34375 C 1.875,0.015625 2.1875,0.0625 2.34375,0.0625 c 0.625,0 0.984375,-0.59375 0.984375,-0.78125 0,-0.0625 -0.078125,-0.0625 -0.109375,-0.0625 -0.078125,0 -0.09375,0.03125 -0.109375,0.0625 C 2.96875,-0.265625 2.59375,-0.109375 2.375,-0.109375 c -0.15625,0 -0.359375,-0.0625 -0.359375,-0.34375 0,-0.0625 0,-0.09375 0.03125,-0.265625 0.09375,-0.34375 0.21875,-0.890625 0.265625,-0.984375 0.0625,-0.125 0.234375,-0.328125 0.484375,-0.328125 0.015625,0 0.1875,0 0.296875,0.078125 z m 0,0"
             id="id-0de7cea6-5775-41ff-8a3d-951b9e194972" />
        </g>
        <g
           transform="translate(159.539,131.029)"
           id="g2268">
          <path
             d="m 1.34375,-0.0625 c 0,0.46875 -0.25,0.75 -0.390625,0.859375 -0.046875,0.03125 -0.0625,0.046875 -0.0625,0.078125 0,0.03125 0.046875,0.09375 0.09375,0.09375 0.0625,0 0.53125,-0.390625 0.53125,-1.015625 0,-0.34375 -0.15625,-0.5625 -0.375,-0.5625 -0.1875,0 -0.296875,0.15625 -0.296875,0.3125 C 0.84375,-0.140625 0.953125,0 1.140625,0 1.21875,0 1.296875,-0.015625 1.34375,-0.0625 Z m 0,0"
             id="id-18e131b7-618c-44a1-b556-6c0b4765d53e" />
        </g>
        <g
           transform="translate(161.822,131.029)"
           id="g7820">
          <path
             d="M 3.296875,-1.859375 C 3.3125,-1.9375 3.3125,-1.96875 3.3125,-1.96875 c 0,-0.109375 -0.078125,-0.171875 -0.171875,-0.171875 -0.203125,0 -0.25,0.171875 -0.28125,0.296875 L 2.75,-1.421875 l -0.140625,0.625 c -0.03125,0.0625 -0.046875,0.15625 -0.0625,0.1875 0,0.03125 -0.265625,0.5 -0.6875,0.5 -0.234375,0 -0.40625,-0.109375 -0.40625,-0.4375 0,-0.265625 0.140625,-0.640625 0.28125,-1 0.03125,-0.046875 0.0625,-0.140625 0.0625,-0.21875 0,-0.25 -0.234375,-0.4375 -0.546875,-0.4375 -0.515625,0 -0.796875,0.640625 -0.796875,0.765625 0,0.078125 0.078125,0.078125 0.109375,0.078125 0.078125,0 0.078125,-0.03125 0.109375,-0.09375 0.109375,-0.34375 0.34375,-0.578125 0.5625,-0.578125 0.09375,0 0.15625,0.046875 0.15625,0.1875 0,0.09375 -0.03125,0.171875 -0.0625,0.265625 -0.25,0.59375 -0.296875,0.765625 -0.296875,0.96875 0,0.546875 0.46875,0.671875 0.796875,0.671875 0.28125,0 0.5,-0.140625 0.625,-0.25 -0.078125,0.28125 -0.125,0.5 -0.359375,0.734375 -0.125,0.109375 -0.359375,0.3125 -0.65625,0.3125 -0.09375,0 -0.28125,-0.015625 -0.390625,-0.125 0.21875,-0.0625 0.25,-0.25 0.25,-0.296875 0,-0.140625 -0.125,-0.203125 -0.21875,-0.203125 -0.15625,0 -0.328125,0.109375 -0.328125,0.34375 0,0.25 0.265625,0.4375 0.6875,0.4375 C 2,1.015625 2.671875,0.640625 2.828125,0 Z m 0,0"
             id="id-0d2f0d3e-2a29-40a9-bb42-5c89f3081ba8" />
        </g>
      </g>
      <g
         fill="#000000"
         fill-opacity="1"
         id="id-3e8c7420-d61b-44ef-9da5-275c397e6c59"
         transform="translate(-149.906,-124.813)">
        <g
           transform="translate(166.138,130.032)"
           id="g6335">
          <path
             d="m 2.484375,-4.34375 c 0,-0.140625 -0.09375,-0.234375 -0.234375,-0.234375 -0.203125,0 -0.359375,0.171875 -0.359375,0.328125 0,0.125 0.09375,0.25 0.25,0.25 0.1875,0 0.34375,-0.171875 0.34375,-0.34375 z m -1.015625,2.625 c -0.046875,0.125 -0.171875,0.453125 -0.25,0.640625 -0.0625,0.1875 -0.15625,0.4375 -0.15625,0.5625 0,0.328125 0.25,0.578125 0.609375,0.578125 C 2.375,0.0625 2.6875,-0.890625 2.6875,-1 c 0,-0.09375 -0.09375,-0.09375 -0.140625,-0.09375 -0.125,0 -0.140625,0.03125 -0.171875,0.15625 -0.09375,0.328125 -0.3125,0.8125 -0.671875,0.8125 -0.171875,0 -0.171875,-0.171875 -0.171875,-0.234375 0,-0.171875 0.125,-0.46875 0.203125,-0.6875 0.078125,-0.21875 0.4375,-1.109375 0.46875,-1.21875 C 2.25,-2.375 2.25,-2.390625 2.25,-2.484375 c 0,-0.3125 -0.25,-0.59375 -0.640625,-0.59375 -0.671875,0 -1,0.953125 -1,1.078125 0,0.078125 0.09375,0.078125 0.15625,0.078125 0.078125,0 0.125,0 0.140625,-0.078125 0.234375,-0.8125 0.5625,-0.875 0.6875,-0.875 0.078125,0 0.171875,0.015625 0.171875,0.234375 0,0.15625 -0.046875,0.296875 -0.109375,0.4375 z m 0,0"
             id="id-fc352380-ed8e-4e19-9b77-ca576cde4a2a" />
        </g>
        <g
           transform="translate(168.706,130.032)"
           id="g6572">
          <path
             d="m 3.21875,-0.609375 c -0.03125,0.15625 -0.109375,0.421875 -0.109375,0.46875 0,0.15625 0.109375,0.203125 0.21875,0.203125 0.234375,0 0.28125,-0.203125 0.3125,-0.3125 0.03125,-0.109375 0.125,-0.453125 0.171875,-0.609375 0.015625,-0.109375 0.078125,-0.375 0.109375,-0.484375 C 3.9375,-1.40625 4.03125,-1.75 4.03125,-1.8125 4.046875,-1.84375 4.265625,-2.3125 4.546875,-2.578125 4.75,-2.765625 5,-2.875 5.28125,-2.875 c 0.3125,0 0.390625,0.234375 0.390625,0.46875 0,0.40625 -0.328125,1.25 -0.453125,1.578125 -0.0625,0.171875 -0.0625,0.21875 -0.0625,0.3125 0,0.375 0.296875,0.578125 0.625,0.578125 0.6875,0 1,-0.953125 1,-1.0625 0,-0.09375 -0.078125,-0.09375 -0.140625,-0.09375 -0.125,0 -0.125,0.03125 -0.171875,0.15625 C 6.359375,-0.515625 6.109375,-0.125 5.796875,-0.125 5.703125,-0.125 5.625,-0.171875 5.625,-0.359375 c 0,-0.15625 0.0625,-0.3125 0.125,-0.46875 0.125,-0.328125 0.40625,-1.09375 0.40625,-1.46875 0,-0.546875 -0.375,-0.78125 -0.859375,-0.78125 -0.53125,0 -0.90625,0.296875 -1.1875,0.671875 -0.0625,-0.578125 -0.53125,-0.671875 -0.859375,-0.671875 -0.609375,0 -0.96875,0.421875 -1.125,0.609375 C 2.078125,-2.90625 1.703125,-3.078125 1.421875,-3.078125 1.125,-3.078125 0.96875,-2.875 0.875,-2.703125 0.71875,-2.46875 0.609375,-2.046875 0.609375,-2 c 0,0.078125 0.09375,0.078125 0.15625,0.078125 0.125,0 0.125,0 0.171875,-0.203125 0.125,-0.46875 0.25,-0.75 0.46875,-0.75 0.21875,0 0.21875,0.25 0.21875,0.328125 0,0.140625 -0.09375,0.484375 -0.140625,0.734375 l -0.203125,0.75 C 1.265625,-0.953125 1.1875,-0.6875 1.15625,-0.578125 1.125,-0.4375 1.0625,-0.1875 1.0625,-0.140625 c 0,0.15625 0.109375,0.203125 0.21875,0.203125 0.234375,0 0.28125,-0.203125 0.3125,-0.3125 0.03125,-0.109375 0.125,-0.453125 0.15625,-0.609375 0.109375,-0.4375 0.21875,-0.875 0.234375,-0.953125 0,0 0.234375,-0.53125 0.546875,-0.796875 C 2.625,-2.6875 2.859375,-2.875 3.234375,-2.875 3.5625,-2.875 3.625,-2.625 3.625,-2.390625 3.625,-2.234375 3.578125,-2.046875 3.546875,-1.875 3.5,-1.71875 3.40625,-1.359375 3.375,-1.203125 Z m 0,0"
             id="id-ea7c2569-dffc-483a-a727-e7734fd39d28" />
        </g>
        <g
           transform="translate(175.371,130.032)"
           id="g9891">
          <path
             d="m 3.8125,-2.578125 c 0.03125,-0.109375 0.03125,-0.125 0.03125,-0.15625 0,-0.15625 -0.109375,-0.203125 -0.21875,-0.203125 -0.234375,0 -0.296875,0.234375 -0.3125,0.25 -0.171875,-0.28125 -0.421875,-0.390625 -0.671875,-0.390625 -0.859375,0 -1.734375,0.984375 -1.734375,2 0,0.75 0.46875,1.140625 0.984375,1.140625 0.4375,0 0.8125,-0.328125 0.953125,-0.46875 C 2.9375,-0.0625 3.265625,0.0625 3.515625,0.0625 3.734375,0.0625 3.90625,-0.03125 4.0625,-0.28125 4.234375,-0.5625 4.328125,-0.96875 4.328125,-1 c 0,-0.09375 -0.09375,-0.09375 -0.140625,-0.09375 -0.125,0 -0.140625,0.015625 -0.1875,0.1875 -0.09375,0.375 -0.203125,0.78125 -0.46875,0.78125 -0.1875,0 -0.21875,-0.203125 -0.21875,-0.328125 0,-0.125 0,-0.125 0.046875,-0.296875 z m -0.921875,1.625 c -0.0625,0.21875 -0.21875,0.390625 -0.375,0.546875 -0.28125,0.25 -0.5,0.28125 -0.609375,0.28125 -0.3125,0 -0.484375,-0.296875 -0.484375,-0.65625 0,-0.296875 0.1875,-1.0625 0.375,-1.4375 0.21875,-0.421875 0.5625,-0.65625 0.84375,-0.65625 0.46875,0 0.5625,0.609375 0.5625,0.671875 0,0.015625 -0.015625,0.046875 -0.03125,0.09375 z m 0,0"
             id="id-c39767e8-7468-4a2a-808f-566806f38d5a" />
        </g>
        <g
           transform="translate(179.577,130.032)"
           id="g5730">
          <path
             d="m 3.8125,-2.578125 c 0.015625,-0.109375 0.015625,-0.125 0.015625,-0.15625 0,-0.15625 -0.109375,-0.203125 -0.21875,-0.203125 -0.140625,0 -0.25,0.09375 -0.296875,0.234375 -0.171875,-0.25 -0.40625,-0.375 -0.6875,-0.375 -0.84375,0 -1.71875,0.984375 -1.71875,1.953125 0,0.640625 0.40625,1.125 1,1.125 C 2.25,0 2.546875,-0.1875 2.734375,-0.34375 2.703125,-0.265625 2.515625,0.5 2.515625,0.515625 2.453125,0.65625 2.203125,1.21875 1.484375,1.21875 c -0.09375,0 -0.34375,0 -0.515625,-0.0625 C 1.140625,1.0625 1.140625,0.890625 1.140625,0.875 c 0,-0.140625 -0.09375,-0.234375 -0.25,-0.234375 -0.171875,0 -0.34375,0.140625 -0.34375,0.375 0,0.375 0.4375,0.40625 0.921875,0.40625 1,0 1.46875,-0.53125 1.578125,-0.96875 z m -0.921875,1.59375 C 2.84375,-0.765625 2.375,-0.1875 1.921875,-0.1875 c -0.3125,0 -0.484375,-0.296875 -0.484375,-0.65625 0,-0.296875 0.171875,-1.078125 0.390625,-1.4375 0.25,-0.421875 0.5625,-0.59375 0.796875,-0.59375 0.484375,0 0.5625,0.59375 0.5625,0.65625 L 3.171875,-2.125 Z m 0,0"
             id="id-8f35c7a8-2687-4ce2-b6f9-146d4e43b8f8" />
        </g>
        <g
           transform="translate(183.374,130.032)"
           id="g6083">
          <path
             d="m 2,-1.59375 c 0.296875,0 1.671875,0 1.671875,-0.859375 0,-0.390625 -0.359375,-0.625 -0.84375,-0.625 -0.78125,0 -1.890625,0.625 -1.890625,1.859375 0,0.734375 0.4375,1.28125 1.1875,1.28125 1.109375,0 1.640625,-0.640625 1.640625,-0.734375 0,-0.0625 -0.09375,-0.171875 -0.15625,-0.171875 -0.03125,0 -0.0625,0.015625 -0.109375,0.078125 -0.421875,0.5 -1.03125,0.640625 -1.375,0.640625 -0.453125,0 -0.640625,-0.390625 -0.640625,-0.828125 0,-0.203125 0.03125,-0.421875 0.078125,-0.640625 z M 1.625,-1.78125 C 1.9375,-2.859375 2.75,-2.875 2.828125,-2.875 c 0.296875,0 0.515625,0.15625 0.515625,0.40625 0,0.6875 -1.125,0.6875 -1.390625,0.6875 z m 0,0"
             id="id-c8ac721c-e3f1-46f5-a154-06f899bfe316" />
        </g>
      </g>
      <g
         fill="#000000"
         fill-opacity="1"
         id="id-381d8de2-6f6a-4fa5-8f42-d62166676862"
         transform="translate(-149.906,-124.813)">
        <g
           transform="translate(187.679,130.032)"
           id="g4546">
          <path
             d="M 2.46875,-5.21875 C 1.15625,-4.296875 0.796875,-2.8125 0.796875,-1.75 c 0,0.984375 0.296875,2.515625 1.671875,3.484375 0.0625,0 0.140625,0 0.140625,-0.078125 0,-0.046875 -0.015625,-0.0625 -0.0625,-0.109375 C 1.609375,0.703125 1.28125,-0.46875 1.28125,-1.734375 1.28125,-3.625 2,-4.546875 2.5625,-5.0625 2.59375,-5.09375 2.609375,-5.109375 2.609375,-5.140625 2.609375,-5.21875 2.53125,-5.21875 2.46875,-5.21875 Z m 0,0"
             id="id-53b930e9-170e-4af5-bb1b-6273d247e55c" />
        </g>
      </g>
      <g
         fill="#000000"
         fill-opacity="1"
         id="id-589c8050-94e4-4391-8591-3195404c49d9"
         transform="translate(-149.906,-124.813)">
        <g
           transform="translate(190.792,130.032)"
           id="g5894">
          <path
             d="M 1.734375,-0.734375 C 1.671875,-0.5 1.4375,-0.125 1.078125,-0.125 c -0.015625,0 -0.234375,0 -0.375,-0.09375 0.28125,-0.09375 0.3125,-0.34375 0.3125,-0.390625 0,-0.15625 -0.125,-0.25 -0.28125,-0.25 -0.203125,0 -0.40625,0.15625 -0.40625,0.421875 0,0.34375 0.390625,0.5 0.734375,0.5 0.328125,0 0.609375,-0.1875 0.78125,-0.484375 C 2.015625,-0.0625 2.390625,0.0625 2.671875,0.0625 c 0.8125,0 1.234375,-0.859375 1.234375,-1.0625 0,-0.09375 -0.09375,-0.09375 -0.109375,-0.09375 -0.109375,0 -0.109375,0.046875 -0.140625,0.125 -0.140625,0.484375 -0.5625,0.84375 -0.953125,0.84375 -0.28125,0 -0.421875,-0.1875 -0.421875,-0.453125 0,-0.1875 0.171875,-0.8125 0.359375,-1.59375 C 2.78125,-2.703125 3.09375,-2.875 3.328125,-2.875 c 0.015625,0 0.21875,0 0.375,0.09375 -0.21875,0.0625 -0.3125,0.265625 -0.3125,0.390625 0,0.140625 0.125,0.25 0.28125,0.25 0.15625,0 0.390625,-0.125 0.390625,-0.421875 0,-0.390625 -0.453125,-0.515625 -0.71875,-0.515625 -0.359375,0 -0.640625,0.234375 -0.78125,0.5 -0.125,-0.28125 -0.453125,-0.5 -0.84375,-0.5 C 0.9375,-3.078125 0.5,-2.21875 0.5,-2 c 0,0.078125 0.09375,0.078125 0.109375,0.078125 0.09375,0 0.09375,-0.015625 0.140625,-0.109375 C 0.921875,-2.578125 1.359375,-2.875 1.703125,-2.875 1.9375,-2.875 2.125,-2.75 2.125,-2.421875 2.125,-2.28125 2.03125,-1.9375 1.96875,-1.6875 Z m 0,0"
             id="id-81852ecd-4ca1-48ef-8152-a5244488ff08" />
        </g>
        <g
           transform="translate(195.31,130.032)"
           id="g6765">
          <path
             d="m 1.46875,-0.109375 c 0,0.375 -0.0625,0.828125 -0.546875,1.265625 C 0.90625,1.1875 0.875,1.21875 0.875,1.25 c 0,0.046875 0.0625,0.09375 0.09375,0.09375 0.109375,0 0.703125,-0.5625 0.703125,-1.390625 0,-0.421875 -0.171875,-0.75 -0.5,-0.75 -0.21875,0 -0.390625,0.171875 -0.390625,0.390625 C 0.78125,-0.1875 0.9375,0 1.1875,0 1.359375,0 1.46875,-0.109375 1.46875,-0.109375 Z m 0,0"
             id="id-f981cb4c-679e-4894-8e4f-0524cdd66d19" />
        </g>
        <g
           transform="translate(197.676,130.032)"
           id="g1917">
          <path
             d="M 3.875,-2.625 C 3.90625,-2.71875 3.90625,-2.734375 3.90625,-2.78125 3.90625,-2.921875 3.796875,-3 3.671875,-3 3.59375,-3 3.46875,-2.96875 3.390625,-2.84375 3.359375,-2.796875 3.3125,-2.578125 3.28125,-2.4375 L 3.125,-1.859375 c -0.03125,0.171875 -0.25,1.046875 -0.28125,1.125 0,0 -0.3125,0.609375 -0.84375,0.609375 -0.484375,0 -0.484375,-0.453125 -0.484375,-0.578125 0,-0.375 0.15625,-0.8125 0.375,-1.359375 C 1.96875,-2.28125 2,-2.359375 2,-2.484375 2,-2.8125 1.71875,-3.078125 1.34375,-3.078125 0.640625,-3.078125 0.328125,-2.125 0.328125,-2 c 0,0.078125 0.09375,0.078125 0.125,0.078125 0.09375,0 0.09375,-0.03125 0.125,-0.109375 C 0.75,-2.609375 1.046875,-2.875 1.328125,-2.875 1.4375,-2.875 1.5,-2.796875 1.5,-2.640625 c 0,0.171875 -0.0625,0.3125 -0.09375,0.40625 C 1.0625,-1.375 1,-1.125 1,-0.8125 1,-0.703125 1,-0.375 1.265625,-0.140625 1.484375,0.03125 1.78125,0.0625 1.96875,0.0625 2.25,0.0625 2.5,-0.03125 2.71875,-0.25 2.640625,0.140625 2.5625,0.4375 2.265625,0.78125 2.078125,1 1.796875,1.21875 1.421875,1.21875 c -0.046875,0 -0.375,0 -0.515625,-0.21875 0.375,-0.046875 0.375,-0.375 0.375,-0.390625 0,-0.21875 -0.203125,-0.265625 -0.265625,-0.265625 -0.171875,0 -0.40625,0.140625 -0.40625,0.46875 0,0.34375 0.328125,0.609375 0.828125,0.609375 C 2.140625,1.421875 3,0.875 3.21875,0 Z m 0,0"
             id="id-a9487134-c488-408b-8460-b97f30b2ccf2" />
        </g>
      </g>
      <g
         fill="#000000"
         fill-opacity="1"
         id="id-111fbd0a-ed02-4489-85d4-02cff9f177b4"
         transform="translate(-149.906,-124.813)">
        <g
           transform="translate(201.966,130.032)"
           id="g4478">
          <path
             d="m 0.625,-5.21875 c -0.046875,0 -0.125,0 -0.125,0.078125 0,0.03125 0.015625,0.046875 0.0625,0.109375 0.59375,0.546875 1.265625,1.484375 1.265625,3.28125 0,1.453125 -0.453125,2.5625 -1.203125,3.234375 -0.125,0.125 -0.125,0.125 -0.125,0.171875 0,0.03125 0.015625,0.078125 0.078125,0.078125 0.09375,0 0.75,-0.453125 1.21875,-1.328125 0.296875,-0.578125 0.5,-1.328125 0.5,-2.140625 C 2.296875,-2.71875 2,-4.25 0.625,-5.21875 Z m 0,0"
             id="id-2ec11b78-4d2c-4cba-8895-5ece64f9dd99" />
        </g>
      </g>
      <path
         fill="none"
         stroke-width="0.398"
         stroke-linecap="butt"
         stroke-linejoin="miter"
         stroke="#000000"
         stroke-opacity="1"
         stroke-miterlimit="10"
         d="M 0,7.7805023 H 55.171875"
         id="id-2e0e9569-5e23-46b0-bf6a-47ac77272f3b" />
      <g
         fill="#000000"
         fill-opacity="1"
         id="id-5c5cef66-f2eb-4790-814a-b18547a490a2"
         transform="translate(-149.906,-124.813)">
        <g
           transform="translate(175.237,138.521)"
           id="g377">
          <path
             d="M 4.21875,-1.078125 V -1.46875 h -0.75 V -4.375 c 0,-0.203125 -0.046875,-0.234375 -0.25,-0.234375 H 3.109375 c -0.125,0 -0.1875,0 -0.265625,0.09375 l -2.5625,3.046875 v 0.390625 h 2.234375 v 0.6875 h -0.875 V 0 c 0.34375,-0.03125 0.96875,-0.03125 1.328125,-0.03125 0.15625,0 1.078125,0.015625 1.25,0.03125 v -0.390625 h -0.75 v -0.6875 z m -1.625,-2.578125 v 2.1875 H 0.765625 Z m 0,0"
             id="id-7e92e768-83d2-4dae-81e6-be92ef43bc53" />
        </g>
      </g>
    </g>
  </g>
</svg>
