<?xml version="1.0" encoding="UTF-8" standalone="no"?>
<!-- Created with Inkscape (http://www.inkscape.org/) -->

<svg
   width="297mm"
   height="210mm"
   viewBox="0 0 1122.5197 793.70081"
   version="1.1"
   id="svg1"
   inkscape:version="1.3 (0e150ed6c4, 2023-07-21)"
   sodipodi:docname="filter_effect.svg"
   inkscape:export-filename="filter_effect.png"
   inkscape:export-xdpi="96"
   inkscape:export-ydpi="96"
   xmlns:inkscape="http://www.inkscape.org/namespaces/inkscape"
   xmlns:sodipodi="http://sodipodi.sourceforge.net/DTD/sodipodi-0.dtd"
   xmlns="http://www.w3.org/2000/svg"
   xmlns:svg="http://www.w3.org/2000/svg"
   xmlns:ns2="http://www.iki.fi/pav/software/textext/">
  <sodipodi:namedview
     id="namedview1"
     pagecolor="#505050"
     bordercolor="#ffffff"
     borderopacity="1"
     inkscape:showpageshadow="0"
     inkscape:pageopacity="0"
     inkscape:pagecheckerboard="1"
     inkscape:deskcolor="#505050"
     inkscape:document-units="mm"
     showgrid="true"
     inkscape:zoom="1.5964085"
     inkscape:cx="872.27047"
     inkscape:cy="302.86734"
     inkscape:window-width="3814"
     inkscape:window-height="2107"
     inkscape:window-x="4490"
     inkscape:window-y="42"
     inkscape:window-maximized="1"
     inkscape:current-layer="layer2">
    <inkscape:grid
       id="grid1"
       units="cm"
       originx="0"
       originy="0"
       spacingx="151.18111"
       spacingy="151.18111"
       empcolor="#0099e5"
       empopacity="0.30196078"
       color="#0099e5"
       opacity="0.14901961"
       empspacing="5"
       dotted="false"
       gridanglex="30"
       gridanglez="30"
       visible="true" />
  </sodipodi:namedview>
  <defs
     id="defs1">
    <marker
       style="overflow:visible"
       id="Dot"
       refX="0"
       refY="0"
       orient="auto"
       inkscape:stockid="Dot"
       markerWidth="1"
       markerHeight="1"
       viewBox="0 0 1 1"
       inkscape:isstock="true"
       inkscape:collect="always"
       preserveAspectRatio="xMidYMid">
      <path
         transform="scale(0.5)"
         style="fill:context-stroke;fill-rule:evenodd;stroke:none"
         d="M 5,0 C 5,2.76 2.76,5 0,5 -2.76,5 -5,2.76 -5,0 c 0,-2.76 2.3,-5 5,-5 2.76,0 5,2.24 5,5 z"
         sodipodi:nodetypes="sssss"
         id="path17" />
    </marker>
    <marker
       style="overflow:visible"
       id="marker67"
       refX="0"
       refY="0"
       orient="auto-start-reverse"
       inkscape:stockid="Arrow tail"
       markerWidth="1"
       markerHeight="1"
       viewBox="0 0 1 1"
       inkscape:isstock="true"
       inkscape:collect="always"
       preserveAspectRatio="xMidYMid">
      <path
         style="fill:none;fill-rule:evenodd;stroke:context-stroke;stroke-width:1;stroke-linecap:round"
         d="m -3.0000001,-3 -3.1102256,3 3.1102256,3 M -4.0952644e-8,-3 -3.0000001,0 -4.0952644e-8,3 M 3,3 -4.0952644e-8,0 3,-3"
         sodipodi:nodetypes="ccccccccc"
         id="path67" />
    </marker>
    <marker
       style="overflow:visible"
       id="Triangle"
       refX="0"
       refY="0"
       orient="auto-start-reverse"
       inkscape:stockid="Triangle arrow"
       markerWidth="1"
       markerHeight="1"
       viewBox="0 0 1 1"
       inkscape:isstock="true"
       inkscape:collect="always"
       preserveAspectRatio="xMidYMid">
      <path
         transform="scale(0.5)"
         style="fill:context-stroke;fill-rule:evenodd;stroke:context-stroke;stroke-width:1pt"
         d="M 5.77,0 -2.88,5 V -5 Z"
         id="path135" />
    </marker>
    <marker
       style="overflow:visible"
       id="Tail"
       refX="0"
       refY="0"
       orient="auto-start-reverse"
       inkscape:stockid="Arrow tail"
       markerWidth="1"
       markerHeight="1"
       viewBox="0 0 1 1"
       inkscape:isstock="true"
       inkscape:collect="always"
       preserveAspectRatio="xMidYMid">
      <path
         style="fill:none;fill-rule:evenodd;stroke:context-stroke;stroke-width:1;stroke-linecap:round"
         d="m -3.0000001,-3 -3.1102256,3 3.1102256,3 M -4.0952644e-8,-3 -3.0000001,0 -4.0952644e-8,3 M 3,3 -4.0952644e-8,0 3,-3"
         sodipodi:nodetypes="ccccccccc"
         id="path10" />
    </marker>
  </defs>
  <g
     inkscape:groupmode="layer"
     id="layer2"
     inkscape:label="Layer 2">
    <path
       style="fill:none;stroke:#000000;stroke-width:3.26929;stroke-dasharray:none;marker-start:url(#Tail)"
       d="m 731.37164,373.82237 c 47.65537,-76.75593 82.35894,-83.64942 140.92363,-102.72196"
       id="path63"
       sodipodi:nodetypes="cc" />
  </g>
  <g
     inkscape:label="Layer 1"
     inkscape:groupmode="layer"
     id="layer1">
    <rect
       style="fill:none;fill-opacity:1;stroke:#000000;stroke-width:1.61974"
       id="rect21"
       width="373.84454"
       height="373.85275"
       x="72.70018"
       y="319.63266"
       transform="matrix(0.86601905,-0.500011,0,1,0,0)" />
    <path
       style="fill:none;fill-opacity:1;stroke:#000000;stroke-width:1.50734"
       d="M 127.66153,619.96915 V 245.92397"
       id="path21" />
    <path
       style="fill:none;fill-opacity:1;stroke:#000000;stroke-width:1.50734"
       d="M 192.50451,208.62395 V 582.44013"
       id="path22" />
    <path
       style="fill:none;fill-opacity:1;stroke:#000000;stroke-width:1.50734"
       d="M 257.45994,544.89895 V 170.85846"
       id="path23" />
    <path
       style="fill:none;fill-opacity:1;stroke:#000000;stroke-width:1.50734"
       d="M 322.34893,133.72177 V 507.56259"
       id="path24" />
    <path
       style="fill:none;fill-opacity:1;stroke:#000000;stroke-width:1.50734"
       d="M 386.83839,396.05138 62.718505,583.18757"
       id="path25" />
    <path
       style="fill:none;fill-opacity:1;stroke:#000000;stroke-width:1.50734"
       d="M 62.911245,508.09589 386.39391,321.32761"
       id="path26" />
    <path
       style="fill:none;fill-opacity:1;stroke:#000000;stroke-width:1.50734"
       d="M 386.58037,246.39304 62.950356,433.24639"
       id="path27" />
    <path
       style="fill:none;fill-opacity:1;stroke:#000000;stroke-width:1.50734"
       d="M 386.4732,171.20493 62.865955,358.04512"
       id="path28" />
    <path
       style="fill:#ffffff;fill-opacity:1;stroke:#000000;stroke-width:1.33531"
       d="M 193.27401,395.57944 V 359.1505 l 31.73752,-18.3242 31.73751,-18.3242 v 36.42895 36.42893 l -31.73751,18.3242 -31.73752,18.32419 z"
       id="path29" />
    <path
       style="fill:#ffffff;fill-opacity:1;stroke:#000000;stroke-width:1.33531"
       d="M 258.2694,358.05324 V 321.6243 l 31.54745,-18.21447 31.54747,-18.21447 v 36.42894 36.42893 l -31.54747,18.21447 -31.54745,18.21447 z"
       id="path30" />
    <path
       style="fill:#ffffff;fill-opacity:1;stroke:#000000;stroke-width:1.33531"
       d="m 258.2694,432.66673 v -36.42894 l 31.54745,-18.21447 31.54747,-18.21447 v 36.42894 36.42894 l -31.54747,18.21447 -31.54745,18.21448 z"
       id="path31" />
    <path
       style="fill:#ffffff;fill-opacity:1;stroke:#000000;stroke-width:1.33531"
       d="m 193.27401,470.19293 v -36.42894 l 31.73752,-18.3242 31.73751,-18.32419 v 36.42894 36.42894 l -31.73751,18.3242 -31.73752,18.32419 z"
       id="path32" />
    <path
       style="fill:#ffffff;fill-opacity:1;stroke:#000000;stroke-width:1.33531"
       d="m 128.65873,507.49967 v -36.42894 l 31.54747,-18.21446 31.54746,-18.21448 v 36.42894 36.42895 l -31.54746,18.21447 -31.54747,18.21447 z"
       id="path33" />
    <path
       style="fill:#ffffff;fill-opacity:1;stroke:#000000;stroke-width:1.33531"
       d="m 128.65873,432.88618 v -36.42894 l 31.54747,-18.21447 31.54746,-18.21447 v 36.42894 36.42893 l -31.54746,18.21448 -31.54747,18.21447 z"
       id="path34" />
    <path
       style="fill:#ffffff;fill-opacity:1;stroke:#000000;stroke-width:1.33531"
       d="m 128.65873,357.61433 v -36.64839 l 31.54747,-18.21447 31.54746,-18.21446 v 36.64838 36.6484 l -31.54746,18.21447 -31.54747,18.21447 z"
       id="path35" />
    <path
       style="fill:#ffffff;fill-opacity:1;stroke:#000000;stroke-width:1.33531"
       d="M 193.27401,320.30759 V 283.6592 l 31.73752,-18.3242 31.73751,-18.3242 v 36.6484 36.64839 l -31.73751,18.3242 -31.73752,18.32419 z"
       id="path36" />
    <path
       style="fill:#ffffff;fill-opacity:1;stroke:#000000;stroke-width:1.33531"
       d="M 258.2694,282.7814 V 246.133 l 31.54745,-18.21447 31.54747,-18.21447 v 36.6484 36.64839 l -31.54747,18.21447 -31.54745,18.21446 z"
       id="path37" />
    <path
       style="fill:#ffffff;fill-opacity:1;stroke:#000000;stroke-width:1.33531"
       d="m 193.27401,544.80642 v -35.99003 l 31.73752,-18.3242 31.73751,-18.3242 v 35.99004 35.99004 l -31.73751,18.3242 -31.73752,18.32419 z"
       id="path38" />
    <path
       style="fill:#ffffff;fill-opacity:1;stroke:#000000;stroke-width:1.33531"
       d="m 258.2694,507.28022 v -35.99003 l 31.54745,-18.21447 31.54747,-18.21448 v 35.99004 35.99004 l -31.54747,18.21447 -31.54745,18.21447 z"
       id="path39" />
    <path
       style="fill:#ffffff;fill-opacity:1;stroke:#000000;stroke-width:1.33531"
       d="m 323.26477,469.75403 v -35.99004 l 31.35742,-18.10474 31.35742,-18.10476 v 35.99004 35.99004 l -31.35742,18.10475 -31.35742,18.10475 z"
       id="path40" />
    <path
       style="fill:#ffffff;fill-opacity:1;stroke:#000000;stroke-width:1.33531"
       d="m 323.26477,395.14054 v -36.42895 l 31.35742,-18.10474 31.35742,-18.10475 v 36.42895 36.42894 l -31.35742,18.10474 -31.35742,18.10475 z"
       id="path41" />
    <path
       style="fill:#ffffff;fill-opacity:1;stroke:#000000;stroke-width:1.33531"
       d="M 323.26477,320.52704 V 284.0981 l 31.35742,-18.10474 31.35742,-18.10475 v 36.42894 36.42893 l -31.35742,18.10475 -31.35742,18.10475 z"
       id="path42" />
    <path
       style="fill:#ffffff;fill-opacity:1;stroke:#000000;stroke-width:1.33531"
       d="M 323.26477,245.25519 V 208.6068 l 31.35742,-18.10474 31.35742,-18.10475 v 36.64839 36.6484 l -31.35742,18.10474 -31.35742,18.10475 z"
       id="path43" />
    <path
       style="fill:#ffffff;fill-opacity:1;stroke:#000000;stroke-width:1.33531"
       d="M 323.26477,170.42225 V 133.9933 l 31.35742,-18.10474 31.35742,-18.104746 v 36.428946 36.42895 l -31.35742,18.10474 -31.35742,18.10474 z"
       id="path44" />
    <path
       style="fill:#ffffff;fill-opacity:1;stroke:#000000;stroke-width:1.33531"
       d="m 258.2694,207.94845 v -36.42894 l 31.54745,-18.21448 31.54747,-18.21447 v 36.42895 36.42894 l -31.54747,18.21447 -31.54745,18.21447 z"
       id="path45" />
    <path
       style="fill:#ffffff;fill-opacity:1;stroke:#000000;stroke-width:1.33531"
       d="M 193.27401,245.47465 V 209.0457 l 31.73752,-18.3242 31.73751,-18.32419 v 36.42894 36.42894 l -31.73751,18.3242 -31.73752,18.3242 z"
       id="path46" />
    <path
       style="fill:#ffffff;fill-opacity:1;stroke:#000000;stroke-width:1.33531"
       d="m 128.65873,282.7814 v -36.42895 l 31.54747,-18.21448 31.54746,-18.21446 v 36.42895 36.42894 l -31.54746,18.21446 -31.54747,18.21447 z"
       id="path47" />
    <path
       style="fill:#ffffff;fill-opacity:1;stroke:#000000;stroke-width:1.33531"
       d="M 63.663352,320.30759 V 283.87864 L 95.210817,265.66417 126.75828,247.4497 v 36.42895 36.42894 l -31.547463,18.21448 -31.547465,18.21446 z"
       id="path48" />
    <path
       style="fill:#ffffff;fill-opacity:1;stroke:#000000;stroke-width:1.33531"
       d="m 63.663352,395.14054 v -36.6484 L 95.210817,340.27768 126.75828,322.0632 v 36.64839 36.6484 l -31.547463,18.21447 -31.547465,18.21447 z"
       id="path49" />
    <path
       style="fill:#ffffff;fill-opacity:1;stroke:#000000;stroke-width:1.33531"
       d="M 63.663352,470.41238 V 433.98344 L 95.210817,415.76898 126.75828,397.5545 v 36.42894 36.42894 l -31.547463,18.21447 -31.547465,18.21447 z"
       id="path50" />
    <path
       style="fill:#ffffff;fill-opacity:1;stroke:#000000;stroke-width:1.33531"
       d="m 63.663352,545.02588 v -36.42894 l 31.547465,-18.21447 31.547463,-18.21448 v 36.42895 36.42894 l -31.547463,18.21447 -31.547465,18.21447 z"
       id="path51" />
    <path
       style="fill:#ffffff;fill-opacity:1;stroke:#000000;stroke-width:1.33531"
       d="m 63.663352,619.63937 v -35.99004 l 31.547465,-18.21446 31.547463,-18.21448 v 35.99004 35.99004 l -31.547463,18.21447 -31.547465,18.21447 z"
       id="path52" />
    <path
       style="fill:#ffffff;fill-opacity:1;stroke:#000000;stroke-width:1.33531"
       d="m 128.65873,582.11317 v -35.99004 l 31.54747,-18.21447 31.54746,-18.21447 v 35.99004 35.99003 l -31.54746,18.21448 -31.54747,18.21446 z"
       id="path53" />
    <g
       transform="matrix(6.1691032,-3.5618378,0,7.1236758,168.14978,172.98878)"
       ns2:version="1.9.0"
       ns2:texconverter="pdflatex"
       ns2:pdfconverter="inkscape"
       ns2:text="$x \\to$"
       ns2:preamble="/home/sankalp/.config/inkscape/extensions/textext/default_packages.tex"
       ns2:scale="1.0"
       ns2:alignment="middle center"
       ns2:stroke-to-path="0"
       ns2:inkscapeversion="1.3"
       id="g6974"
       ns2:jacobian_sqrt="1.33333">
      <defs
         id="id-c6a19ad2-12de-48c5-acbc-a7ea03b97955">
        <g
           id="id-27e60be5-5be2-4b9d-81fa-7e3df6f0050e">
          <g
             id="id-592e7955-a21b-4527-ad8e-c2b7b7a3132a" />
          <g
             id="id-8a600825-ba15-4b3a-b1b7-1979f0c6fe74">
            <path
               d="M 3.328125,-3.015625 C 3.390625,-3.265625 3.625,-4.1875 4.3125,-4.1875 c 0.046875,0 0.296875,0 0.5,0.125 C 4.53125,-4 4.34375,-3.765625 4.34375,-3.515625 c 0,0.15625 0.109375,0.34375 0.375,0.34375 0.21875,0 0.53125,-0.171875 0.53125,-0.578125 0,-0.515625 -0.578125,-0.65625 -0.921875,-0.65625 -0.578125,0 -0.921875,0.53125 -1.046875,0.75 -0.25,-0.65625 -0.78125,-0.75 -1.078125,-0.75 -1.03125,0 -1.609375,1.28125 -1.609375,1.53125 0,0.109375 0.109375,0.109375 0.125,0.109375 0.078125,0 0.109375,-0.03125 0.125,-0.109375 0.34375,-1.0625 1,-1.3125 1.34375,-1.3125 0.1875,0 0.53125,0.09375 0.53125,0.671875 0,0.3125 -0.171875,0.96875 -0.53125,2.375 -0.15625,0.609375 -0.515625,1.03125 -0.953125,1.03125 -0.0625,0 -0.28125,0 -0.5,-0.125 0.25,-0.0625 0.46875,-0.265625 0.46875,-0.546875 0,-0.265625 -0.21875,-0.34375 -0.359375,-0.34375 -0.3125,0 -0.546875,0.25 -0.546875,0.578125 0,0.453125 0.484375,0.65625 0.921875,0.65625 0.671875,0 1.03125,-0.703125 1.046875,-0.75 0.125,0.359375 0.484375,0.75 1.078125,0.75 1.03125,0 1.59375,-1.28125 1.59375,-1.53125 0,-0.109375 -0.078125,-0.109375 -0.109375,-0.109375 -0.09375,0 -0.109375,0.046875 -0.140625,0.109375 -0.328125,1.078125 -1,1.3125 -1.3125,1.3125 -0.390625,0 -0.546875,-0.3125 -0.546875,-0.65625 0,-0.21875 0.046875,-0.4375 0.15625,-0.875 z m 0,0"
               id="id-257fe0cc-8d97-4eab-9fe7-6c9bc47adcc7" />
          </g>
          <g
             id="id-f02724de-b49c-44d9-8cd4-5ce8e0c33487" />
          <g
             id="id-7bc8fe38-f455-497a-b2e2-dccadd204e09">
            <path
               d="M 8.3125,-2.296875 C 7.765625,-1.875 7.5,-1.46875 7.421875,-1.328125 c -0.453125,0.6875 -0.53125,1.3125 -0.53125,1.3125 0,0.125 0.125,0.125 0.203125,0.125 C 7.25,0.109375 7.265625,0.09375 7.3125,-0.09375 7.53125,-1.0625 8.125,-1.90625 9.25,-2.359375 9.375,-2.40625 9.40625,-2.421875 9.40625,-2.5 c 0,-0.0625 -0.0625,-0.09375 -0.078125,-0.109375 C 8.875,-2.765625 7.671875,-3.265625 7.296875,-4.9375 7.265625,-5.0625 7.25,-5.09375 7.09375,-5.09375 c -0.078125,0 -0.203125,0 -0.203125,0.125 0,0.015625 0.09375,0.640625 0.5,1.3125 0.203125,0.296875 0.5,0.640625 0.921875,0.96875 H 0.90625 c -0.171875,0 -0.359375,0 -0.359375,0.1875 0,0.203125 0.1875,0.203125 0.359375,0.203125 z m 0,0"
               id="id-7e4e8a77-6465-4a89-8414-95ed27fc9295" />
          </g>
        </g>
      </defs>
      <g
         fill="#000000"
         fill-opacity="1"
         id="id-1d0780f5-ea52-42b2-9880-fd55ed6ba0b8"
         transform="translate(-149.009,-129.671)">
        <g
           transform="translate(148.712,134.765)"
           id="g4692">
          <path
             d="M 3.328125,-3.015625 C 3.390625,-3.265625 3.625,-4.1875 4.3125,-4.1875 c 0.046875,0 0.296875,0 0.5,0.125 C 4.53125,-4 4.34375,-3.765625 4.34375,-3.515625 c 0,0.15625 0.109375,0.34375 0.375,0.34375 0.21875,0 0.53125,-0.171875 0.53125,-0.578125 0,-0.515625 -0.578125,-0.65625 -0.921875,-0.65625 -0.578125,0 -0.921875,0.53125 -1.046875,0.75 -0.25,-0.65625 -0.78125,-0.75 -1.078125,-0.75 -1.03125,0 -1.609375,1.28125 -1.609375,1.53125 0,0.109375 0.109375,0.109375 0.125,0.109375 0.078125,0 0.109375,-0.03125 0.125,-0.109375 0.34375,-1.0625 1,-1.3125 1.34375,-1.3125 0.1875,0 0.53125,0.09375 0.53125,0.671875 0,0.3125 -0.171875,0.96875 -0.53125,2.375 -0.15625,0.609375 -0.515625,1.03125 -0.953125,1.03125 -0.0625,0 -0.28125,0 -0.5,-0.125 0.25,-0.0625 0.46875,-0.265625 0.46875,-0.546875 0,-0.265625 -0.21875,-0.34375 -0.359375,-0.34375 -0.3125,0 -0.546875,0.25 -0.546875,0.578125 0,0.453125 0.484375,0.65625 0.921875,0.65625 0.671875,0 1.03125,-0.703125 1.046875,-0.75 0.125,0.359375 0.484375,0.75 1.078125,0.75 1.03125,0 1.59375,-1.28125 1.59375,-1.53125 0,-0.109375 -0.078125,-0.109375 -0.109375,-0.109375 -0.09375,0 -0.109375,0.046875 -0.140625,0.109375 -0.328125,1.078125 -1,1.3125 -1.3125,1.3125 -0.390625,0 -0.546875,-0.3125 -0.546875,-0.65625 0,-0.21875 0.046875,-0.4375 0.15625,-0.875 z m 0,0"
             id="id-54a24f19-57c7-4b64-bff2-e3d6f0fc5fa0" />
        </g>
      </g>
      <g
         fill="#000000"
         fill-opacity="1"
         id="id-cc863d18-3067-47cb-9f47-5b65b9b46c0d"
         transform="translate(-149.009,-129.671)">
        <g
           transform="translate(157.174,134.765)"
           id="g2661">
          <path
             d="M 8.3125,-2.296875 C 7.765625,-1.875 7.5,-1.46875 7.421875,-1.328125 c -0.453125,0.6875 -0.53125,1.3125 -0.53125,1.3125 0,0.125 0.125,0.125 0.203125,0.125 C 7.25,0.109375 7.265625,0.09375 7.3125,-0.09375 7.53125,-1.0625 8.125,-1.90625 9.25,-2.359375 9.375,-2.40625 9.40625,-2.421875 9.40625,-2.5 c 0,-0.0625 -0.0625,-0.09375 -0.078125,-0.109375 C 8.875,-2.765625 7.671875,-3.265625 7.296875,-4.9375 7.265625,-5.0625 7.25,-5.09375 7.09375,-5.09375 c -0.078125,0 -0.203125,0 -0.203125,0.125 0,0.015625 0.09375,0.640625 0.5,1.3125 0.203125,0.296875 0.5,0.640625 0.921875,0.96875 H 0.90625 c -0.171875,0 -0.359375,0 -0.359375,0.1875 0,0.203125 0.1875,0.203125 0.359375,0.203125 z m 0,0"
             id="id-729814d3-f4e5-4606-8561-eb274ab0fd94" />
        </g>
      </g>
    </g>
    <g
       transform="matrix(0,7.3118373,-6.3320511,3.6559186,51.180969,394.23944)"
       ns2:version="1.9.0"
       ns2:texconverter="pdflatex"
       ns2:pdfconverter="inkscape"
       ns2:text="$y \\to$"
       ns2:preamble="/home/sankalp/.config/inkscape/extensions/textext/default_packages.tex"
       ns2:scale="1.0"
       ns2:alignment="middle center"
       ns2:stroke-to-path="0"
       ns2:inkscapeversion="1.3"
       id="g3322"
       ns2:jacobian_sqrt="1.33333">
      <defs
         id="id-655b3666-8e0f-454e-9ba2-449c5b6bb01f">
        <g
           id="id-fd33a391-2246-4227-ad9b-2fc0154646a6">
          <g
             id="id-f3c0d463-aed2-4407-9137-c0d585332aa1" />
          <g
             id="id-0c1f6c8c-75a4-42f0-bdda-a3ddb9afe682">
            <path
               d="m 4.84375,-3.796875 c 0.046875,-0.140625 0.046875,-0.15625 0.046875,-0.234375 0,-0.171875 -0.140625,-0.265625 -0.296875,-0.265625 -0.09375,0 -0.25,0.0625 -0.34375,0.203125 -0.015625,0.0625 -0.109375,0.359375 -0.140625,0.546875 -0.078125,0.25 -0.140625,0.53125 -0.203125,0.796875 l -0.453125,1.796875 c -0.03125,0.140625 -0.46875,0.84375 -1.125,0.84375 -0.5,0 -0.609375,-0.4375 -0.609375,-0.8125 C 1.71875,-1.375 1.890625,-2 2.21875,-2.875 2.375,-3.28125 2.421875,-3.390625 2.421875,-3.59375 c 0,-0.4375 -0.3125,-0.8125 -0.8125,-0.8125 -0.953125,0 -1.3125,1.453125 -1.3125,1.53125 0,0.109375 0.09375,0.109375 0.109375,0.109375 0.109375,0 0.109375,-0.03125 0.15625,-0.1875 0.28125,-0.9375 0.671875,-1.234375 1.015625,-1.234375 0.078125,0 0.25,0 0.25,0.3125 0,0.25 -0.109375,0.515625 -0.171875,0.703125 -0.40625,1.0625 -0.578125,1.625 -0.578125,2.09375 0,0.890625 0.625,1.1875 1.21875,1.1875 0.390625,0 0.71875,-0.171875 1,-0.453125 -0.125,0.515625 -0.25,1.015625 -0.640625,1.546875 -0.265625,0.328125 -0.640625,0.625 -1.09375,0.625 -0.140625,0 -0.59375,-0.03125 -0.765625,-0.421875 0.15625,0 0.296875,0 0.421875,-0.125 C 1.328125,1.203125 1.421875,1.0625 1.421875,0.875 1.421875,0.5625 1.15625,0.53125 1.0625,0.53125 0.828125,0.53125 0.5,0.6875 0.5,1.171875 c 0,0.5 0.4375,0.875 1.0625,0.875 1.015625,0 2.046875,-0.90625 2.328125,-2.03125 z m 0,0"
               id="id-dcc2031a-abcd-44d1-9454-09ccaf48b4cb" />
          </g>
          <g
             id="id-9aa09f73-90cc-42c6-8c33-29a2312c94ab" />
          <g
             id="id-185f5282-cd70-4341-80b4-8c2efae1444e">
            <path
               d="M 8.3125,-2.296875 C 7.765625,-1.875 7.5,-1.46875 7.421875,-1.328125 c -0.453125,0.6875 -0.53125,1.3125 -0.53125,1.3125 0,0.125 0.125,0.125 0.203125,0.125 C 7.25,0.109375 7.265625,0.09375 7.3125,-0.09375 7.53125,-1.0625 8.125,-1.90625 9.25,-2.359375 9.375,-2.40625 9.40625,-2.421875 9.40625,-2.5 c 0,-0.0625 -0.0625,-0.09375 -0.078125,-0.109375 C 8.875,-2.765625 7.671875,-3.265625 7.296875,-4.9375 7.265625,-5.0625 7.25,-5.09375 7.09375,-5.09375 c -0.078125,0 -0.203125,0 -0.203125,0.125 0,0.015625 0.09375,0.640625 0.5,1.3125 0.203125,0.296875 0.5,0.640625 0.921875,0.96875 H 0.90625 c -0.171875,0 -0.359375,0 -0.359375,0.1875 0,0.203125 0.1875,0.203125 0.359375,0.203125 z m 0,0"
               id="id-d90a0d56-c72f-4b71-bbe2-50f13cb335bd" />
          </g>
        </g>
      </defs>
      <g
         fill="#000000"
         fill-opacity="1"
         id="id-f663d826-48de-47e4-bfbb-8b937d60bbcb"
         transform="translate(-149.009,-129.671)">
        <g
           transform="translate(148.712,134.765)"
           id="g5024">
          <path
             d="m 4.84375,-3.796875 c 0.046875,-0.140625 0.046875,-0.15625 0.046875,-0.234375 0,-0.171875 -0.140625,-0.265625 -0.296875,-0.265625 -0.09375,0 -0.25,0.0625 -0.34375,0.203125 -0.015625,0.0625 -0.109375,0.359375 -0.140625,0.546875 -0.078125,0.25 -0.140625,0.53125 -0.203125,0.796875 l -0.453125,1.796875 c -0.03125,0.140625 -0.46875,0.84375 -1.125,0.84375 -0.5,0 -0.609375,-0.4375 -0.609375,-0.8125 C 1.71875,-1.375 1.890625,-2 2.21875,-2.875 2.375,-3.28125 2.421875,-3.390625 2.421875,-3.59375 c 0,-0.4375 -0.3125,-0.8125 -0.8125,-0.8125 -0.953125,0 -1.3125,1.453125 -1.3125,1.53125 0,0.109375 0.09375,0.109375 0.109375,0.109375 0.109375,0 0.109375,-0.03125 0.15625,-0.1875 0.28125,-0.9375 0.671875,-1.234375 1.015625,-1.234375 0.078125,0 0.25,0 0.25,0.3125 0,0.25 -0.109375,0.515625 -0.171875,0.703125 -0.40625,1.0625 -0.578125,1.625 -0.578125,2.09375 0,0.890625 0.625,1.1875 1.21875,1.1875 0.390625,0 0.71875,-0.171875 1,-0.453125 -0.125,0.515625 -0.25,1.015625 -0.640625,1.546875 -0.265625,0.328125 -0.640625,0.625 -1.09375,0.625 -0.140625,0 -0.59375,-0.03125 -0.765625,-0.421875 0.15625,0 0.296875,0 0.421875,-0.125 C 1.328125,1.203125 1.421875,1.0625 1.421875,0.875 1.421875,0.5625 1.15625,0.53125 1.0625,0.53125 0.828125,0.53125 0.5,0.6875 0.5,1.171875 c 0,0.5 0.4375,0.875 1.0625,0.875 1.015625,0 2.046875,-0.90625 2.328125,-2.03125 z m 0,0"
             id="id-fa67e99d-5f3e-4ba5-a8e0-233c39c360bd" />
        </g>
      </g>
      <g
         fill="#000000"
         fill-opacity="1"
         id="id-9dac510f-ff1f-42e4-839c-443ea2de773d"
         transform="translate(-149.009,-129.671)">
        <g
           transform="translate(156.722,134.765)"
           id="g8472">
          <path
             d="M 8.3125,-2.296875 C 7.765625,-1.875 7.5,-1.46875 7.421875,-1.328125 c -0.453125,0.6875 -0.53125,1.3125 -0.53125,1.3125 0,0.125 0.125,0.125 0.203125,0.125 C 7.25,0.109375 7.265625,0.09375 7.3125,-0.09375 7.53125,-1.0625 8.125,-1.90625 9.25,-2.359375 9.375,-2.40625 9.40625,-2.421875 9.40625,-2.5 c 0,-0.0625 -0.0625,-0.09375 -0.078125,-0.109375 C 8.875,-2.765625 7.671875,-3.265625 7.296875,-4.9375 7.265625,-5.0625 7.25,-5.09375 7.09375,-5.09375 c -0.078125,0 -0.203125,0 -0.203125,0.125 0,0.015625 0.09375,0.640625 0.5,1.3125 0.203125,0.296875 0.5,0.640625 0.921875,0.96875 H 0.90625 c -0.171875,0 -0.359375,0 -0.359375,0.1875 0,0.203125 0.1875,0.203125 0.359375,0.203125 z m 0,0"
             id="id-1a966afe-4908-4758-a9ad-0da8b9039b0e" />
        </g>
      </g>
    </g>
    <rect
       style="fill:none;fill-opacity:1;stroke:#000000;stroke-width:1.61974"
       id="use11"
       width="373.84454"
       height="373.85275"
       x="907.95166"
       y="737.26758"
       transform="matrix(0.86601905,-0.500011,0,1,0,0)" />
    <path
       style="fill:none;fill-opacity:1;stroke:#000000;stroke-width:1.50734"
       d="M 851.0052,619.96915 V 245.92397"
       id="use12" />
    <path
       style="fill:none;fill-opacity:1;stroke:#000000;stroke-width:1.50734"
       d="M 915.84818,208.62395 V 582.44013"
       id="use13" />
    <path
       style="fill:none;fill-opacity:1;stroke:#000000;stroke-width:1.50734"
       d="M 980.80361,544.89895 V 170.85846"
       id="use14" />
    <path
       style="fill:none;fill-opacity:1;stroke:#000000;stroke-width:1.50734"
       d="M 1045.6926,133.72177 V 507.56259"
       id="use15" />
    <path
       style="fill:none;fill-opacity:1;stroke:#000000;stroke-width:1.50734"
       d="M 1110.1821,396.05138 786.06218,583.18757"
       id="use16" />
    <path
       style="fill:none;fill-opacity:1;stroke:#000000;stroke-width:1.50734"
       d="M 786.25491,508.09589 1109.7376,321.32761"
       id="use17" />
    <path
       style="fill:none;fill-opacity:1;stroke:#000000;stroke-width:1.50734"
       d="M 1109.924,246.39304 786.29403,433.24639"
       id="use18" />
    <path
       style="fill:none;fill-opacity:1;stroke:#000000;stroke-width:1.50734"
       d="M 1109.8169,171.20493 786.20962,358.04512"
       id="use19" />
    <path
       style="fill:#f3adbe;fill-opacity:0.30323935;stroke:#000000;stroke-width:1.33531"
       d="M 916.61768,395.57944 V 359.1505 l 31.73752,-18.3242 31.73751,-18.3242 v 36.42895 36.42893 l -31.73751,18.3242 -31.73752,18.32419 z"
       id="use20" />
    <path
       style="fill:#f3adbe;fill-opacity:0.30323935;stroke:#000000;stroke-width:1.33531"
       d="M 981.61307,358.05324 V 321.6243 l 31.54743,-18.21447 31.5475,-18.21447 v 36.42894 36.42893 l -31.5475,18.21447 -31.54743,18.21447 z"
       id="use21" />
    <path
       style="fill:#f3adbe;fill-opacity:0.30323935;stroke:#000000;stroke-width:1.33531"
       d="m 981.61307,432.66673 v -36.42894 l 31.54743,-18.21447 31.5475,-18.21447 v 36.42894 36.42894 l -31.5475,18.21447 -31.54743,18.21448 z"
       id="use22" />
    <path
       style="fill:#f3adbe;fill-opacity:0.30323935;stroke:#000000;stroke-width:1.33531"
       d="m 916.61768,470.19293 v -36.42894 l 31.73752,-18.3242 31.73751,-18.32419 v 36.42894 36.42894 l -31.73751,18.3242 -31.73752,18.32419 z"
       id="use23" />
    <path
       style="fill:#f3adbe;fill-opacity:0.30323935;stroke:#000000;stroke-width:1.33531"
       d="m 852.0024,507.49967 v -36.42894 l 31.54747,-18.21446 31.54746,-18.21448 v 36.42894 36.42895 l -31.54746,18.21447 -31.54747,18.21447 z"
       id="use24" />
    <path
       style="fill:#f3adbe;fill-opacity:0.30323935;stroke:#000000;stroke-width:1.33531"
       d="m 852.0024,432.88618 v -36.42894 l 31.54747,-18.21447 31.54746,-18.21447 v 36.42894 36.42893 l -31.54746,18.21448 -31.54747,18.21447 z"
       id="use25" />
    <path
       style="fill:#f3adbe;fill-opacity:0.30323935;stroke:#000000;stroke-width:1.33531"
       d="m 852.0024,357.61433 v -36.64839 l 31.54747,-18.21447 31.54746,-18.21446 v 36.64838 36.6484 l -31.54746,18.21447 -31.54747,18.21447 z"
       id="use26" />
    <path
       style="fill:#f3adbe;fill-opacity:0.30323935;stroke:#000000;stroke-width:1.33531"
       d="M 916.61768,320.30759 V 283.6592 l 31.73752,-18.3242 31.73751,-18.3242 v 36.6484 36.64839 l -31.73751,18.3242 -31.73752,18.32419 z"
       id="use27" />
    <path
       style="fill:#f3adbe;fill-opacity:0.30323935;stroke:#000000;stroke-width:1.33531"
       d="M 981.61307,282.7814 V 246.133 l 31.54743,-18.21447 31.5475,-18.21447 v 36.6484 36.64839 l -31.5475,18.21447 -31.54743,18.21446 z"
       id="use28" />
    <path
       style="fill:#f3adbe;fill-opacity:0.30323935;stroke:#000000;stroke-width:1.33531"
       d="m 916.61768,544.80642 v -35.99003 l 31.73752,-18.3242 31.73751,-18.3242 v 35.99004 35.99004 l -31.73751,18.3242 -31.73752,18.32419 z"
       id="use29" />
    <path
       style="fill:#f3adbe;fill-opacity:0.30323935;stroke:#000000;stroke-width:1.33531"
       d="m 981.61307,507.28022 v -35.99003 l 31.54743,-18.21447 31.5475,-18.21448 v 35.99004 35.99004 l -31.5475,18.21447 -31.54743,18.21447 z"
       id="use30" />
    <path
       style="fill:#f3adbe;fill-opacity:0.30323935;stroke:#000000;stroke-width:1.33531"
       d="m 1046.6084,469.75403 v -35.99004 l 31.3575,-18.10474 31.3574,-18.10476 v 35.99004 35.99004 l -31.3574,18.10475 -31.3575,18.10475 z"
       id="use31" />
    <path
       style="fill:#f3adbe;fill-opacity:0.30323935;stroke:#000000;stroke-width:1.33531"
       d="m 1046.6084,395.14054 v -36.42895 l 31.3575,-18.10474 31.3574,-18.10475 v 36.42895 36.42894 l -31.3574,18.10474 -31.3575,18.10475 z"
       id="use32" />
    <path
       style="fill:#f3adbe;fill-opacity:0.30323935;stroke:#000000;stroke-width:1.33531"
       d="M 1046.6084,320.52704 V 284.0981 l 31.3575,-18.10474 31.3574,-18.10475 v 36.42894 36.42893 l -31.3574,18.10475 -31.3575,18.10475 z"
       id="use33" />
    <path
       style="fill:#f3adbe;fill-opacity:0.30323935;stroke:#000000;stroke-width:1.33531"
       d="M 1046.6084,245.25519 V 208.6068 l 31.3575,-18.10474 31.3574,-18.10475 v 36.64839 36.6484 l -31.3574,18.10474 -31.3575,18.10475 z"
       id="use34" />
    <path
       style="fill:#f3adbe;fill-opacity:0.30323935;stroke:#000000;stroke-width:1.33531"
       d="M 1046.6084,170.42225 V 133.9933 l 31.3575,-18.10474 31.3574,-18.104746 v 36.428946 36.42895 l -31.3574,18.10474 -31.3575,18.10474 z"
       id="use35" />
    <path
       style="fill:#f3adbe;fill-opacity:0.30323935;stroke:#000000;stroke-width:1.33531"
       d="m 981.61307,207.94845 v -36.42894 l 31.54743,-18.21448 31.5475,-18.21447 v 36.42895 36.42894 l -31.5475,18.21447 -31.54743,18.21447 z"
       id="use36" />
    <path
       style="fill:#f3adbe;fill-opacity:0.30323935;stroke:#000000;stroke-width:1.33531"
       d="M 916.61768,245.47465 V 209.0457 l 31.73752,-18.3242 31.73751,-18.32419 v 36.42894 36.42894 l -31.73751,18.3242 -31.73752,18.3242 z"
       id="use37" />
    <path
       style="fill:#ff5555;fill-opacity:1;stroke:#000000;stroke-width:1.33531"
       d="m 852.0024,282.7814 v -36.42895 l 31.54747,-18.21448 31.54746,-18.21446 v 36.42895 36.42894 l -31.54746,18.21446 -31.54747,18.21447 z"
       id="use38" />
    <path
       style="fill:#f3adbe;fill-opacity:0.30323935;stroke:#000000;stroke-width:1.33531"
       d="m 787.00702,320.30759 v -36.42895 l 31.54747,-18.21447 31.54746,-18.21447 v 36.42895 36.42894 l -31.54746,18.21448 -31.54747,18.21446 z"
       id="use39" />
    <path
       style="fill:#f3adbe;fill-opacity:0.30323935;stroke:#000000;stroke-width:1.33531"
       d="m 787.00702,395.14054 v -36.6484 l 31.54747,-18.21446 31.54746,-18.21448 v 36.64839 36.6484 l -31.54746,18.21447 -31.54747,18.21447 z"
       id="use40" />
    <path
       style="fill:#f3adbe;fill-opacity:0.30323935;stroke:#000000;stroke-width:1.33531"
       d="m 787.00702,470.41238 v -36.42894 l 31.54747,-18.21446 31.54746,-18.21448 v 36.42894 36.42894 l -31.54746,18.21447 -31.54747,18.21447 z"
       id="use41" />
    <path
       style="fill:#f3adbe;fill-opacity:0.30323935;stroke:#000000;stroke-width:1.33531"
       d="m 787.00702,545.02588 v -36.42894 l 31.54747,-18.21447 31.54746,-18.21448 v 36.42895 36.42894 l -31.54746,18.21447 -31.54747,18.21447 z"
       id="use42" />
    <path
       style="fill:#f3adbe;fill-opacity:0.30323935;stroke:#000000;stroke-width:1.33531"
       d="m 787.00702,619.63937 v -35.99004 l 31.54747,-18.21446 31.54746,-18.21448 v 35.99004 35.99004 l -31.54746,18.21447 -31.54747,18.21447 z"
       id="use43" />
    <path
       style="fill:#f3adbe;fill-opacity:0.30323935;stroke:#000000;stroke-width:1.33531"
       d="m 852.0024,582.11317 v -35.99004 l 31.54747,-18.21447 31.54746,-18.21447 v 35.99004 35.99003 l -31.54746,18.21448 -31.54747,18.21446 z"
       id="use44" />
    <g
       transform="matrix(5.2719698,0,0,5.2719698,481.06441,367.85981)"
       ns2:version="1.9.0"
       ns2:texconverter="pdflatex"
       ns2:pdfconverter="inkscape"
       ns2:text="$f(src, a, b)$"
       ns2:preamble="/home/sankalp/.config/inkscape/extensions/textext/default_packages.tex"
       ns2:scale="1.0"
       ns2:alignment="middle center"
       ns2:stroke-to-path="0"
       ns2:inkscapeversion="1.3"
       id="g3784"
       ns2:jacobian_sqrt="1.33333">
      <defs
         id="id-376f6d2e-8cde-4fc0-9e50-be7a8f22b3b6">
        <g
           id="id-0d47361e-e229-40a4-87b4-f187a04d6113">
          <g
             id="id-2f75f632-5804-43cc-8e1d-a59fd0a3b27f" />
          <g
             id="id-940c54b9-fc21-4dfd-a574-7c9cf885d319">
            <path
               d="m 3.65625,-3.984375 h 0.859375 c 0.203125,0 0.296875,0 0.296875,-0.203125 0,-0.109375 -0.09375,-0.109375 -0.265625,-0.109375 H 3.71875 L 3.921875,-5.4375 c 0.046875,-0.203125 0.1875,-0.90625 0.25,-1.03125 0.078125,-0.1875 0.25,-0.34375 0.46875,-0.34375 0.03125,0 0.296875,0 0.484375,0.1875 -0.4375,0.03125 -0.546875,0.390625 -0.546875,0.53125 0,0.234375 0.1875,0.359375 0.375,0.359375 C 5.21875,-5.734375 5.5,-5.96875 5.5,-6.34375 c 0,-0.453125 -0.453125,-0.6875 -0.859375,-0.6875 -0.34375,0 -0.96875,0.1875 -1.265625,1.171875 -0.0625,0.203125 -0.09375,0.3125 -0.328125,1.5625 h -0.6875 c -0.203125,0 -0.3125,0 -0.3125,0.1875 0,0.125 0.09375,0.125 0.28125,0.125 h 0.65625 L 2.25,-0.046875 c -0.1875,0.96875 -0.359375,1.875 -0.875,1.875 -0.046875,0 -0.28125,0 -0.484375,-0.1875 C 1.359375,1.609375 1.453125,1.25 1.453125,1.109375 1.453125,0.875 1.265625,0.75 1.078125,0.75 0.8125,0.75 0.53125,0.984375 0.53125,1.359375 c 0,0.4375 0.4375,0.6875 0.84375,0.6875 0.546875,0 0.953125,-0.59375 1.125,-0.96875 0.328125,-0.625 0.546875,-1.828125 0.5625,-1.90625 z m 0,0"
               id="id-5f503732-e9ed-4451-aacc-7dc9830ed26a" />
          </g>
          <g
             id="id-ebe1ce74-e88a-413f-8791-0d1734a48045">
            <path
               d="M 3.890625,-3.734375 C 3.625,-3.71875 3.421875,-3.5 3.421875,-3.28125 c 0,0.140625 0.09375,0.296875 0.3125,0.296875 0.21875,0 0.453125,-0.171875 0.453125,-0.5625 C 4.1875,-4 3.765625,-4.40625 3,-4.40625 c -1.3125,0 -1.6875,1.015625 -1.6875,1.453125 0,0.78125 0.734375,0.921875 1.03125,0.984375 0.515625,0.109375 1.03125,0.21875 1.03125,0.765625 0,0.25 -0.21875,1.09375 -1.421875,1.09375 -0.140625,0 -0.90625,0 -1.140625,-0.53125 0.390625,0.046875 0.640625,-0.25 0.640625,-0.53125 0,-0.21875 -0.171875,-0.34375 -0.375,-0.34375 -0.265625,0 -0.5625,0.203125 -0.5625,0.65625 0,0.5625 0.578125,0.96875 1.421875,0.96875 1.625,0 2.015625,-1.203125 2.015625,-1.65625 0,-0.359375 -0.1875,-0.609375 -0.3125,-0.71875 -0.265625,-0.28125 -0.5625,-0.34375 -1,-0.421875 -0.359375,-0.078125 -0.75,-0.15625 -0.75,-0.609375 C 1.890625,-3.578125 2.125,-4.1875 3,-4.1875 c 0.25,0 0.75,0.078125 0.890625,0.453125 z m 0,0"
               id="id-be223fcc-9a9e-4f3b-8cba-b07156ffdd05" />
          </g>
          <g
             id="id-8111e6c3-e3e9-4451-b4f5-0c4a3e784cc9">
            <path
               d="m 0.875,-0.59375 c -0.03125,0.15625 -0.09375,0.390625 -0.09375,0.4375 0,0.171875 0.140625,0.265625 0.296875,0.265625 0.125,0 0.296875,-0.078125 0.375,-0.28125 C 1.46875,-0.203125 1.796875,-1.5625 1.84375,-1.75 c 0.078125,-0.328125 0.265625,-1.015625 0.3125,-1.296875 0.046875,-0.125 0.328125,-0.59375 0.5625,-0.8125 0.078125,-0.0625 0.375,-0.328125 0.796875,-0.328125 0.265625,0 0.40625,0.125 0.421875,0.125 -0.296875,0.046875 -0.515625,0.28125 -0.515625,0.546875 0,0.15625 0.109375,0.34375 0.375,0.34375 0.265625,0 0.546875,-0.234375 0.546875,-0.59375 0,-0.34375 -0.3125,-0.640625 -0.828125,-0.640625 C 2.875,-4.40625 2.4375,-3.921875 2.25,-3.640625 2.15625,-4.09375 1.796875,-4.40625 1.328125,-4.40625 0.875,-4.40625 0.6875,-4.015625 0.59375,-3.84375 0.421875,-3.5 0.296875,-2.90625 0.296875,-2.875 c 0,0.109375 0.09375,0.109375 0.109375,0.109375 0.109375,0 0.109375,-0.015625 0.171875,-0.234375 0.171875,-0.703125 0.375,-1.1875 0.734375,-1.1875 0.15625,0 0.296875,0.078125 0.296875,0.453125 0,0.21875 -0.03125,0.328125 -0.15625,0.84375 z m 0,0"
               id="id-d712ae5d-3829-4fed-8d55-6b9fff0850a4" />
          </g>
          <g
             id="id-f21d803b-bf8b-4591-a689-8b45b35bcffb">
            <path
               d="m 3.953125,-3.78125 c -0.171875,0 -0.296875,0 -0.4375,0.125 -0.171875,0.15625 -0.1875,0.328125 -0.1875,0.390625 0,0.25 0.1875,0.359375 0.375,0.359375 0.28125,0 0.546875,-0.25 0.546875,-0.640625 0,-0.484375 -0.46875,-0.859375 -1.171875,-0.859375 -1.34375,0 -2.671875,1.421875 -2.671875,2.828125 0,0.90625 0.578125,1.6875 1.625,1.6875 1.421875,0 2.25,-1.0625 2.25,-1.171875 0,-0.0625 -0.046875,-0.140625 -0.109375,-0.140625 -0.0625,0 -0.078125,0.03125 -0.140625,0.109375 -0.78125,0.984375 -1.875,0.984375 -1.984375,0.984375 -0.625,0 -0.90625,-0.484375 -0.90625,-1.09375 0,-0.40625 0.203125,-1.375 0.546875,-1.984375 0.3125,-0.578125 0.859375,-1 1.40625,-1 0.328125,0 0.71875,0.125 0.859375,0.40625 z m 0,0"
               id="id-bccb5e32-1121-4cd1-b1d0-282ccf9b1344" />
          </g>
          <g
             id="id-8764f975-3459-41ab-a45c-8a95e227883d">
            <path
               d="m 2.03125,-0.015625 c 0,-0.65625 -0.25,-1.046875 -0.640625,-1.046875 -0.328125,0 -0.53125,0.25 -0.53125,0.53125 C 0.859375,-0.265625 1.0625,0 1.390625,0 1.5,0 1.640625,-0.046875 1.734375,-0.125 1.765625,-0.15625 1.78125,-0.15625 1.78125,-0.15625 c 0.015625,0 0.015625,0 0.015625,0.140625 0,0.75 -0.34375,1.34375 -0.671875,1.671875 -0.109375,0.109375 -0.109375,0.125 -0.109375,0.15625 0,0.078125 0.046875,0.109375 0.09375,0.109375 0.109375,0 0.921875,-0.765625 0.921875,-1.9375 z m 0,0"
               id="id-5481b58a-1290-4812-8928-927a5a64f181" />
          </g>
          <g
             id="id-f3e64db0-01a1-4fd9-a501-b31b652681fc">
            <path
               d="M 3.71875,-3.765625 C 3.53125,-4.140625 3.25,-4.40625 2.796875,-4.40625 c -1.15625,0 -2.390625,1.46875 -2.390625,2.921875 0,0.9375 0.546875,1.59375 1.3125,1.59375 0.203125,0 0.703125,-0.046875 1.296875,-0.75 0.078125,0.421875 0.4375,0.75 0.90625,0.75 0.359375,0 0.578125,-0.234375 0.75,-0.546875 0.15625,-0.359375 0.296875,-0.96875 0.296875,-0.984375 0,-0.109375 -0.09375,-0.109375 -0.125,-0.109375 -0.09375,0 -0.109375,0.046875 -0.140625,0.1875 -0.171875,0.640625 -0.34375,1.234375 -0.75,1.234375 -0.28125,0 -0.296875,-0.265625 -0.296875,-0.453125 0,-0.21875 0.015625,-0.3125 0.125,-0.75 C 3.890625,-1.71875 3.90625,-1.828125 4,-2.203125 L 4.359375,-3.59375 c 0.0625,-0.28125 0.0625,-0.296875 0.0625,-0.34375 0,-0.171875 -0.109375,-0.265625 -0.28125,-0.265625 -0.25,0 -0.390625,0.21875 -0.421875,0.4375 z M 3.078125,-1.1875 C 3.015625,-1 3.015625,-0.984375 2.875,-0.8125 2.4375,-0.265625 2.03125,-0.109375 1.75,-0.109375 c -0.5,0 -0.640625,-0.546875 -0.640625,-0.9375 0,-0.5 0.3125,-1.71875 0.546875,-2.1875 0.3125,-0.578125 0.75,-0.953125 1.15625,-0.953125 0.640625,0 0.78125,0.8125 0.78125,0.875 0,0.0625 -0.015625,0.125 -0.03125,0.171875 z m 0,0"
               id="id-8be858f6-5f0a-4e67-81cc-bad35a620d62" />
          </g>
          <g
             id="id-e875b3d6-b362-44ab-bf20-fc8c1ddeb212">
            <path
               d="m 2.375,-6.8125 c 0,0 0,-0.109375 -0.125,-0.109375 -0.21875,0 -0.953125,0.078125 -1.21875,0.109375 -0.078125,0 -0.1875,0.015625 -0.1875,0.1875 0,0.125 0.09375,0.125 0.25,0.125 0.46875,0 0.484375,0.0625 0.484375,0.171875 0,0.0625 -0.078125,0.40625 -0.125,0.609375 l -0.828125,3.25 c -0.109375,0.5 -0.15625,0.671875 -0.15625,1.015625 0,0.9375 0.53125,1.5625 1.265625,1.5625 1.171875,0 2.40625,-1.484375 2.40625,-2.921875 0,-0.90625 -0.53125,-1.59375 -1.328125,-1.59375 -0.453125,0 -0.875,0.296875 -1.171875,0.59375 z M 1.453125,-3.046875 C 1.5,-3.265625 1.5,-3.28125 1.59375,-3.390625 2.078125,-4.03125 2.53125,-4.1875 2.796875,-4.1875 c 0.359375,0 0.625,0.296875 0.625,0.9375 0,0.59375 -0.328125,1.734375 -0.515625,2.109375 -0.328125,0.671875 -0.78125,1.03125 -1.171875,1.03125 -0.34375,0 -0.671875,-0.265625 -0.671875,-1 0,-0.203125 0,-0.390625 0.15625,-1.015625 z m 0,0"
               id="id-e1330752-6481-43ee-97b5-d8519b08ba6c" />
          </g>
          <g
             id="id-78ccd05c-9a35-48e8-8d65-78413b4f57ef" />
          <g
             id="id-ff036384-179d-41c5-8dc6-565b9f4e8597">
            <path
               d="m 3.296875,2.390625 c 0,-0.03125 0,-0.046875 -0.171875,-0.21875 C 1.890625,0.921875 1.5625,-0.96875 1.5625,-2.5 c 0,-1.734375 0.375,-3.46875 1.609375,-4.703125 0.125,-0.125 0.125,-0.140625 0.125,-0.171875 0,-0.078125 -0.03125,-0.109375 -0.09375,-0.109375 -0.109375,0 -1,0.6875 -1.59375,1.953125 -0.5,1.09375 -0.625,2.203125 -0.625,3.03125 0,0.78125 0.109375,1.984375 0.65625,3.125 C 2.25,1.84375 3.09375,2.5 3.203125,2.5 c 0.0625,0 0.09375,-0.03125 0.09375,-0.109375 z m 0,0"
               id="id-c0067351-6fdb-402e-967e-498fb7d6c537" />
          </g>
          <g
             id="id-24306409-524f-40e3-813b-5fc5fb86f13a">
            <path
               d="m 2.875,-2.5 c 0,-0.765625 -0.109375,-1.96875 -0.65625,-3.109375 -0.59375,-1.21875 -1.453125,-1.875 -1.546875,-1.875 -0.0625,0 -0.109375,0.046875 -0.109375,0.109375 0,0.03125 0,0.046875 0.1875,0.234375 0.984375,0.984375 1.546875,2.5625 1.546875,4.640625 0,1.71875 -0.359375,3.46875 -1.59375,4.71875 C 0.5625,2.34375 0.5625,2.359375 0.5625,2.390625 0.5625,2.453125 0.609375,2.5 0.671875,2.5 0.765625,2.5 1.671875,1.8125 2.25,0.546875 2.765625,-0.546875 2.875,-1.65625 2.875,-2.5 Z m 0,0"
               id="id-36bcc104-426a-407a-a34b-a9d1cb33cb80" />
          </g>
        </g>
      </defs>
      <g
         fill="#000000"
         fill-opacity="1"
         id="id-7cc71a0d-b3b8-408a-b749-1bad1951fdf2"
         transform="translate(-149.243,-127.281)">
        <g
           transform="translate(148.712,134.765)"
           id="g2104">
          <path
             d="m 3.65625,-3.984375 h 0.859375 c 0.203125,0 0.296875,0 0.296875,-0.203125 0,-0.109375 -0.09375,-0.109375 -0.265625,-0.109375 H 3.71875 L 3.921875,-5.4375 c 0.046875,-0.203125 0.1875,-0.90625 0.25,-1.03125 0.078125,-0.1875 0.25,-0.34375 0.46875,-0.34375 0.03125,0 0.296875,0 0.484375,0.1875 -0.4375,0.03125 -0.546875,0.390625 -0.546875,0.53125 0,0.234375 0.1875,0.359375 0.375,0.359375 C 5.21875,-5.734375 5.5,-5.96875 5.5,-6.34375 c 0,-0.453125 -0.453125,-0.6875 -0.859375,-0.6875 -0.34375,0 -0.96875,0.1875 -1.265625,1.171875 -0.0625,0.203125 -0.09375,0.3125 -0.328125,1.5625 h -0.6875 c -0.203125,0 -0.3125,0 -0.3125,0.1875 0,0.125 0.09375,0.125 0.28125,0.125 h 0.65625 L 2.25,-0.046875 c -0.1875,0.96875 -0.359375,1.875 -0.875,1.875 -0.046875,0 -0.28125,0 -0.484375,-0.1875 C 1.359375,1.609375 1.453125,1.25 1.453125,1.109375 1.453125,0.875 1.265625,0.75 1.078125,0.75 0.8125,0.75 0.53125,0.984375 0.53125,1.359375 c 0,0.4375 0.4375,0.6875 0.84375,0.6875 0.546875,0 0.953125,-0.59375 1.125,-0.96875 0.328125,-0.625 0.546875,-1.828125 0.5625,-1.90625 z m 0,0"
             id="id-07971c83-5957-4a04-9ce5-9e33d6da7ae1" />
        </g>
      </g>
      <g
         fill="#000000"
         fill-opacity="1"
         id="id-7849c8f5-2f5f-409a-8802-2c341d038c74"
         transform="translate(-149.243,-127.281)">
        <g
           transform="translate(154.662,134.765)"
           id="g5974">
          <path
             d="m 3.296875,2.390625 c 0,-0.03125 0,-0.046875 -0.171875,-0.21875 C 1.890625,0.921875 1.5625,-0.96875 1.5625,-2.5 c 0,-1.734375 0.375,-3.46875 1.609375,-4.703125 0.125,-0.125 0.125,-0.140625 0.125,-0.171875 0,-0.078125 -0.03125,-0.109375 -0.09375,-0.109375 -0.109375,0 -1,0.6875 -1.59375,1.953125 -0.5,1.09375 -0.625,2.203125 -0.625,3.03125 0,0.78125 0.109375,1.984375 0.65625,3.125 C 2.25,1.84375 3.09375,2.5 3.203125,2.5 c 0.0625,0 0.09375,-0.03125 0.09375,-0.109375 z m 0,0"
             id="id-548494b3-fe38-452f-b8ae-7376707f3ed5" />
        </g>
      </g>
      <g
         fill="#000000"
         fill-opacity="1"
         id="id-18a1384e-afd8-4305-b038-b6ea0c578b18"
         transform="translate(-149.243,-127.281)">
        <g
           transform="translate(158.537,134.765)"
           id="g2072">
          <path
             d="M 3.890625,-3.734375 C 3.625,-3.71875 3.421875,-3.5 3.421875,-3.28125 c 0,0.140625 0.09375,0.296875 0.3125,0.296875 0.21875,0 0.453125,-0.171875 0.453125,-0.5625 C 4.1875,-4 3.765625,-4.40625 3,-4.40625 c -1.3125,0 -1.6875,1.015625 -1.6875,1.453125 0,0.78125 0.734375,0.921875 1.03125,0.984375 0.515625,0.109375 1.03125,0.21875 1.03125,0.765625 0,0.25 -0.21875,1.09375 -1.421875,1.09375 -0.140625,0 -0.90625,0 -1.140625,-0.53125 0.390625,0.046875 0.640625,-0.25 0.640625,-0.53125 0,-0.21875 -0.171875,-0.34375 -0.375,-0.34375 -0.265625,0 -0.5625,0.203125 -0.5625,0.65625 0,0.5625 0.578125,0.96875 1.421875,0.96875 1.625,0 2.015625,-1.203125 2.015625,-1.65625 0,-0.359375 -0.1875,-0.609375 -0.3125,-0.71875 -0.265625,-0.28125 -0.5625,-0.34375 -1,-0.421875 -0.359375,-0.078125 -0.75,-0.15625 -0.75,-0.609375 C 1.890625,-3.578125 2.125,-4.1875 3,-4.1875 c 0.25,0 0.75,0.078125 0.890625,0.453125 z m 0,0"
             id="id-4c7358ed-6eb6-40bc-845b-427aa204beee" />
        </g>
        <g
           transform="translate(163.207,134.765)"
           id="g2091">
          <path
             d="m 0.875,-0.59375 c -0.03125,0.15625 -0.09375,0.390625 -0.09375,0.4375 0,0.171875 0.140625,0.265625 0.296875,0.265625 0.125,0 0.296875,-0.078125 0.375,-0.28125 C 1.46875,-0.203125 1.796875,-1.5625 1.84375,-1.75 c 0.078125,-0.328125 0.265625,-1.015625 0.3125,-1.296875 0.046875,-0.125 0.328125,-0.59375 0.5625,-0.8125 0.078125,-0.0625 0.375,-0.328125 0.796875,-0.328125 0.265625,0 0.40625,0.125 0.421875,0.125 -0.296875,0.046875 -0.515625,0.28125 -0.515625,0.546875 0,0.15625 0.109375,0.34375 0.375,0.34375 0.265625,0 0.546875,-0.234375 0.546875,-0.59375 0,-0.34375 -0.3125,-0.640625 -0.828125,-0.640625 C 2.875,-4.40625 2.4375,-3.921875 2.25,-3.640625 2.15625,-4.09375 1.796875,-4.40625 1.328125,-4.40625 0.875,-4.40625 0.6875,-4.015625 0.59375,-3.84375 0.421875,-3.5 0.296875,-2.90625 0.296875,-2.875 c 0,0.109375 0.09375,0.109375 0.109375,0.109375 0.109375,0 0.109375,-0.015625 0.171875,-0.234375 0.171875,-0.703125 0.375,-1.1875 0.734375,-1.1875 0.15625,0 0.296875,0.078125 0.296875,0.453125 0,0.21875 -0.03125,0.328125 -0.15625,0.84375 z m 0,0"
             id="id-d3d62b04-9a9e-48a7-8909-29bb5290f195" />
        </g>
      </g>
      <g
         fill="#000000"
         fill-opacity="1"
         id="id-3f1bc8d0-867b-4e4d-9f65-b76867733cd1"
         transform="translate(-149.243,-127.281)">
        <g
           transform="translate(167.982,134.765)"
           id="g3922">
          <path
             d="m 3.953125,-3.78125 c -0.171875,0 -0.296875,0 -0.4375,0.125 -0.171875,0.15625 -0.1875,0.328125 -0.1875,0.390625 0,0.25 0.1875,0.359375 0.375,0.359375 0.28125,0 0.546875,-0.25 0.546875,-0.640625 0,-0.484375 -0.46875,-0.859375 -1.171875,-0.859375 -1.34375,0 -2.671875,1.421875 -2.671875,2.828125 0,0.90625 0.578125,1.6875 1.625,1.6875 1.421875,0 2.25,-1.0625 2.25,-1.171875 0,-0.0625 -0.046875,-0.140625 -0.109375,-0.140625 -0.0625,0 -0.078125,0.03125 -0.140625,0.109375 -0.78125,0.984375 -1.875,0.984375 -1.984375,0.984375 -0.625,0 -0.90625,-0.484375 -0.90625,-1.09375 0,-0.40625 0.203125,-1.375 0.546875,-1.984375 0.3125,-0.578125 0.859375,-1 1.40625,-1 0.328125,0 0.71875,0.125 0.859375,0.40625 z m 0,0"
             id="id-a2b40ded-05eb-4d2c-8881-1c8b1970d0ba" />
        </g>
        <g
           transform="translate(172.293,134.765)"
           id="g2520">
          <path
             d="m 2.03125,-0.015625 c 0,-0.65625 -0.25,-1.046875 -0.640625,-1.046875 -0.328125,0 -0.53125,0.25 -0.53125,0.53125 C 0.859375,-0.265625 1.0625,0 1.390625,0 1.5,0 1.640625,-0.046875 1.734375,-0.125 1.765625,-0.15625 1.78125,-0.15625 1.78125,-0.15625 c 0.015625,0 0.015625,0 0.015625,0.140625 0,0.75 -0.34375,1.34375 -0.671875,1.671875 -0.109375,0.109375 -0.109375,0.125 -0.109375,0.15625 0,0.078125 0.046875,0.109375 0.09375,0.109375 0.109375,0 0.921875,-0.765625 0.921875,-1.9375 z m 0,0"
             id="id-6c5dd26f-6564-40cb-8ed9-5bd26264df58" />
        </g>
      </g>
      <g
         fill="#000000"
         fill-opacity="1"
         id="id-bfe173a7-fbe8-4ffa-9396-f4325500aca2"
         transform="translate(-149.243,-127.281)">
        <g
           transform="translate(176.715,134.765)"
           id="g5958">
          <path
             d="M 3.71875,-3.765625 C 3.53125,-4.140625 3.25,-4.40625 2.796875,-4.40625 c -1.15625,0 -2.390625,1.46875 -2.390625,2.921875 0,0.9375 0.546875,1.59375 1.3125,1.59375 0.203125,0 0.703125,-0.046875 1.296875,-0.75 0.078125,0.421875 0.4375,0.75 0.90625,0.75 0.359375,0 0.578125,-0.234375 0.75,-0.546875 0.15625,-0.359375 0.296875,-0.96875 0.296875,-0.984375 0,-0.109375 -0.09375,-0.109375 -0.125,-0.109375 -0.09375,0 -0.109375,0.046875 -0.140625,0.1875 -0.171875,0.640625 -0.34375,1.234375 -0.75,1.234375 -0.28125,0 -0.296875,-0.265625 -0.296875,-0.453125 0,-0.21875 0.015625,-0.3125 0.125,-0.75 C 3.890625,-1.71875 3.90625,-1.828125 4,-2.203125 L 4.359375,-3.59375 c 0.0625,-0.28125 0.0625,-0.296875 0.0625,-0.34375 0,-0.171875 -0.109375,-0.265625 -0.28125,-0.265625 -0.25,0 -0.390625,0.21875 -0.421875,0.4375 z M 3.078125,-1.1875 C 3.015625,-1 3.015625,-0.984375 2.875,-0.8125 2.4375,-0.265625 2.03125,-0.109375 1.75,-0.109375 c -0.5,0 -0.640625,-0.546875 -0.640625,-0.9375 0,-0.5 0.3125,-1.71875 0.546875,-2.1875 0.3125,-0.578125 0.75,-0.953125 1.15625,-0.953125 0.640625,0 0.78125,0.8125 0.78125,0.875 0,0.0625 -0.015625,0.125 -0.03125,0.171875 z m 0,0"
             id="id-8423f68e-77d3-4cfa-989a-acc9b6df8011" />
        </g>
        <g
           transform="translate(181.981,134.765)"
           id="g8813">
          <path
             d="m 2.03125,-0.015625 c 0,-0.65625 -0.25,-1.046875 -0.640625,-1.046875 -0.328125,0 -0.53125,0.25 -0.53125,0.53125 C 0.859375,-0.265625 1.0625,0 1.390625,0 1.5,0 1.640625,-0.046875 1.734375,-0.125 1.765625,-0.15625 1.78125,-0.15625 1.78125,-0.15625 c 0.015625,0 0.015625,0 0.015625,0.140625 0,0.75 -0.34375,1.34375 -0.671875,1.671875 -0.109375,0.109375 -0.109375,0.125 -0.109375,0.15625 0,0.078125 0.046875,0.109375 0.09375,0.109375 0.109375,0 0.921875,-0.765625 0.921875,-1.9375 z m 0,0"
             id="id-fe715bc6-4873-418d-b301-899daf3d8991" />
        </g>
      </g>
      <g
         fill="#000000"
         fill-opacity="1"
         id="id-22adcd97-8dd7-47d0-b0cb-eb051ab64214"
         transform="translate(-149.243,-127.281)">
        <g
           transform="translate(186.412,134.765)"
           id="g9474">
          <path
             d="m 2.375,-6.8125 c 0,0 0,-0.109375 -0.125,-0.109375 -0.21875,0 -0.953125,0.078125 -1.21875,0.109375 -0.078125,0 -0.1875,0.015625 -0.1875,0.1875 0,0.125 0.09375,0.125 0.25,0.125 0.46875,0 0.484375,0.0625 0.484375,0.171875 0,0.0625 -0.078125,0.40625 -0.125,0.609375 l -0.828125,3.25 c -0.109375,0.5 -0.15625,0.671875 -0.15625,1.015625 0,0.9375 0.53125,1.5625 1.265625,1.5625 1.171875,0 2.40625,-1.484375 2.40625,-2.921875 0,-0.90625 -0.53125,-1.59375 -1.328125,-1.59375 -0.453125,0 -0.875,0.296875 -1.171875,0.59375 z M 1.453125,-3.046875 C 1.5,-3.265625 1.5,-3.28125 1.59375,-3.390625 2.078125,-4.03125 2.53125,-4.1875 2.796875,-4.1875 c 0.359375,0 0.625,0.296875 0.625,0.9375 0,0.59375 -0.328125,1.734375 -0.515625,2.109375 -0.328125,0.671875 -0.78125,1.03125 -1.171875,1.03125 -0.34375,0 -0.671875,-0.265625 -0.671875,-1 0,-0.203125 0,-0.390625 0.15625,-1.015625 z m 0,0"
             id="id-0980d667-ed03-4194-995a-73f238352dfe" />
        </g>
      </g>
      <g
         fill="#000000"
         fill-opacity="1"
         id="id-c18b7de5-04ca-4fab-a11f-fc96684cd798"
         transform="translate(-149.243,-127.281)">
        <g
           transform="translate(190.687,134.765)"
           id="g8253">
          <path
             d="m 2.875,-2.5 c 0,-0.765625 -0.109375,-1.96875 -0.65625,-3.109375 -0.59375,-1.21875 -1.453125,-1.875 -1.546875,-1.875 -0.0625,0 -0.109375,0.046875 -0.109375,0.109375 0,0.03125 0,0.046875 0.1875,0.234375 0.984375,0.984375 1.546875,2.5625 1.546875,4.640625 0,1.71875 -0.359375,3.46875 -1.59375,4.71875 C 0.5625,2.34375 0.5625,2.359375 0.5625,2.390625 0.5625,2.453125 0.609375,2.5 0.671875,2.5 0.765625,2.5 1.671875,1.8125 2.25,0.546875 2.765625,-0.546875 2.875,-1.65625 2.875,-2.5 Z m 0,0"
             id="id-964346f2-9806-4242-93b4-9c8f67aec35b" />
        </g>
      </g>
    </g>
    <path
       style="fill:#f3adbe;fill-opacity:0.303239;stroke:#000000;stroke-width:3.26929;stroke-dasharray:none;marker-mid:url(#Triangle);marker-start:url(#marker67);marker-end:url(#Dot)"
       d="M 350.80608,225.48387 472.23832,388.09093"
       id="path64" />
    <path
       style="fill:#f3adbe;fill-opacity:0.303239;stroke:#000000;stroke-width:3.26929;stroke-dasharray:none;marker-mid:url(#Triangle);marker-start:url(#marker67);marker-end:url(#Dot)"
       d="m 225.98457,379.67734 245.87234,9.38439"
       id="path65" />
    <path
       style="fill:#f3adbe;fill-opacity:0.303239;stroke:#000000;stroke-width:3.26929;stroke-dasharray:none;marker-mid:url(#Triangle);marker-start:url(#marker67);marker-end:url(#Dot)"
       d="M 227.2435,525.99462 471.03261,389.46126"
       id="path66" />
  </g>
  <g
     inkscape:groupmode="layer"
     id="layer3"
     inkscape:label="Layer 3" />
  <text
     xml:space="preserve"
     style="font-size:44.3512px;line-height:0;font-family:'Mononoki Nerd Font Mono';-inkscape-font-specification:'Mononoki Nerd Font Mono';letter-spacing:0px;fill:none;stroke:#000000;stroke-width:1.00157482;stroke-dasharray:none"
     x="62.223183"
     y="720.57849"
     id="text57"><tspan
       sodipodi:role="line"
       id="tspan57"
       x="62.223183"
       y="720.57849"
       style="fill:#000000;stroke-width:1.00157482;stroke-dasharray:none">source image</tspan></text>
  <text
     xml:space="preserve"
     style="font-size:44.3512px;line-height:0;font-family:'Mononoki Nerd Font Mono';-inkscape-font-specification:'Mononoki Nerd Font Mono';letter-spacing:0px;fill:none;stroke:#000000;stroke-width:1.00157;stroke-dasharray:none"
     x="797.46399"
     y="720.57849"
     id="use57"><tspan
       sodipodi:role="line"
       id="tspan58"
       x="797.46399"
       y="720.57849"
       style="fill:#000000;stroke-width:1.00157;stroke-dasharray:none">lazy filter</tspan></text>
  <text
     xml:space="preserve"
     style="font-size:26.6667px;line-height:0;font-family:'Mononoki Nerd Font Mono';-inkscape-font-specification:'Mononoki Nerd Font Mono';letter-spacing:0px;fill:#000000;stroke:#000000;stroke-width:1.00157;stroke-dasharray:none"
     x="524.52515"
     y="463.75644"
     id="text59"><tspan
       sodipodi:role="line"
       id="tspan59"
       x="524.52515"
       y="463.75644">filtering</tspan><tspan
       sodipodi:role="line"
       x="524.52515"
       y="463.75644"
       id="tspan60" /></text>
  <text
     xml:space="preserve"
     style="font-size:26.6667px;line-height:0;font-family:'Mononoki Nerd Font Mono';-inkscape-font-specification:'Mononoki Nerd Font Mono';letter-spacing:0px;fill:#000000;stroke:#000000;stroke-width:1.00157;stroke-dasharray:none"
     x="531.44928"
     y="502.11877"
     id="use60"><tspan
       sodipodi:role="line"
       id="tspan61"
       x="531.44928"
       y="502.11877">function</tspan><tspan
       sodipodi:role="line"
       x="531.44928"
       y="502.11877"
       id="tspan62" /></text>
  <text
     xml:space="preserve"
     style="font-size:26.6667px;line-height:0;font-family:'Mononoki Nerd Font Mono';-inkscape-font-specification:'Mononoki Nerd Font Mono';letter-spacing:0px;fill:#000000;stroke:#000000;stroke-width:1.00157;stroke-dasharray:none"
     x="757.86664"
     y="129.65581"
     id="text63"><tspan
       sodipodi:role="line"
       id="tspan63"
       x="757.86664"
       y="129.65581">queried pixel</tspan></text>
  <g
     transform="matrix(4.9162884,0,0,4.9162884,797.55459,159.76769)"
     ns2:version="1.9.0"
     ns2:texconverter="pdflatex"
     ns2:pdfconverter="inkscape"
     ns2:text="$(a, b)$"
     ns2:preamble="/home/sankalp/.config/inkscape/extensions/textext/default_packages.tex"
     ns2:scale="1.0"
     ns2:alignment="middle center"
     ns2:stroke-to-path="0"
     ns2:inkscapeversion="1.3"
     id="g8336"
     ns2:jacobian_sqrt="1.33333">
    <defs
       id="id-a5372223-1c58-4ffd-848a-a55e8138c5a7">
      <g
         id="id-f97205cc-a237-4c2f-ba14-d42b0401ab53">
        <g
           id="id-fd423654-7773-4ee5-811e-bb1368ebaf48" />
        <g
           id="id-1b54a038-3ac7-42d9-a59a-13e86d15c5a0">
          <path
             d="m 3.296875,2.390625 c 0,-0.03125 0,-0.046875 -0.171875,-0.21875 C 1.890625,0.921875 1.5625,-0.96875 1.5625,-2.5 c 0,-1.734375 0.375,-3.46875 1.609375,-4.703125 0.125,-0.125 0.125,-0.140625 0.125,-0.171875 0,-0.078125 -0.03125,-0.109375 -0.09375,-0.109375 -0.109375,0 -1,0.6875 -1.59375,1.953125 -0.5,1.09375 -0.625,2.203125 -0.625,3.03125 0,0.78125 0.109375,1.984375 0.65625,3.125 C 2.25,1.84375 3.09375,2.5 3.203125,2.5 c 0.0625,0 0.09375,-0.03125 0.09375,-0.109375 z m 0,0"
             id="id-0154224b-76ec-4e99-89ab-8572e3fd1530" />
        </g>
        <g
           id="id-87aea58f-4f20-493f-acbc-acb8f44ec32a">
          <path
             d="m 2.875,-2.5 c 0,-0.765625 -0.109375,-1.96875 -0.65625,-3.109375 -0.59375,-1.21875 -1.453125,-1.875 -1.546875,-1.875 -0.0625,0 -0.109375,0.046875 -0.109375,0.109375 0,0.03125 0,0.046875 0.1875,0.234375 0.984375,0.984375 1.546875,2.5625 1.546875,4.640625 0,1.71875 -0.359375,3.46875 -1.59375,4.71875 C 0.5625,2.34375 0.5625,2.359375 0.5625,2.390625 0.5625,2.453125 0.609375,2.5 0.671875,2.5 0.765625,2.5 1.671875,1.8125 2.25,0.546875 2.765625,-0.546875 2.875,-1.65625 2.875,-2.5 Z m 0,0"
             id="id-8f1d96e8-de01-48db-9725-ace19ffafdcf" />
        </g>
        <g
           id="id-a8d6d8f0-6bc4-4732-b7a8-6ce32cc32829" />
        <g
           id="id-761c6ab4-9efd-4efb-8c49-d8969b9ec919">
          <path
             d="M 3.71875,-3.765625 C 3.53125,-4.140625 3.25,-4.40625 2.796875,-4.40625 c -1.15625,0 -2.390625,1.46875 -2.390625,2.921875 0,0.9375 0.546875,1.59375 1.3125,1.59375 0.203125,0 0.703125,-0.046875 1.296875,-0.75 0.078125,0.421875 0.4375,0.75 0.90625,0.75 0.359375,0 0.578125,-0.234375 0.75,-0.546875 0.15625,-0.359375 0.296875,-0.96875 0.296875,-0.984375 0,-0.109375 -0.09375,-0.109375 -0.125,-0.109375 -0.09375,0 -0.109375,0.046875 -0.140625,0.1875 -0.171875,0.640625 -0.34375,1.234375 -0.75,1.234375 -0.28125,0 -0.296875,-0.265625 -0.296875,-0.453125 0,-0.21875 0.015625,-0.3125 0.125,-0.75 C 3.890625,-1.71875 3.90625,-1.828125 4,-2.203125 L 4.359375,-3.59375 c 0.0625,-0.28125 0.0625,-0.296875 0.0625,-0.34375 0,-0.171875 -0.109375,-0.265625 -0.28125,-0.265625 -0.25,0 -0.390625,0.21875 -0.421875,0.4375 z M 3.078125,-1.1875 C 3.015625,-1 3.015625,-0.984375 2.875,-0.8125 2.4375,-0.265625 2.03125,-0.109375 1.75,-0.109375 c -0.5,0 -0.640625,-0.546875 -0.640625,-0.9375 0,-0.5 0.3125,-1.71875 0.546875,-2.1875 0.3125,-0.578125 0.75,-0.953125 1.15625,-0.953125 0.640625,0 0.78125,0.8125 0.78125,0.875 0,0.0625 -0.015625,0.125 -0.03125,0.171875 z m 0,0"
             id="id-c7bc7165-3d04-4fcd-a38a-3875ed4fa67a" />
        </g>
        <g
           id="id-75d2fe88-1062-4624-b10b-64c49b0ef2e8">
          <path
             d="m 2.03125,-0.015625 c 0,-0.65625 -0.25,-1.046875 -0.640625,-1.046875 -0.328125,0 -0.53125,0.25 -0.53125,0.53125 C 0.859375,-0.265625 1.0625,0 1.390625,0 1.5,0 1.640625,-0.046875 1.734375,-0.125 1.765625,-0.15625 1.78125,-0.15625 1.78125,-0.15625 c 0.015625,0 0.015625,0 0.015625,0.140625 0,0.75 -0.34375,1.34375 -0.671875,1.671875 -0.109375,0.109375 -0.109375,0.125 -0.109375,0.15625 0,0.078125 0.046875,0.109375 0.09375,0.109375 0.109375,0 0.921875,-0.765625 0.921875,-1.9375 z m 0,0"
             id="id-536dc6a7-36bc-4ead-88fb-ded0c8e8980a" />
        </g>
        <g
           id="id-c3d537c4-4ec3-4529-97f2-4b1d4751b8bb">
          <path
             d="m 2.375,-6.8125 c 0,0 0,-0.109375 -0.125,-0.109375 -0.21875,0 -0.953125,0.078125 -1.21875,0.109375 -0.078125,0 -0.1875,0.015625 -0.1875,0.1875 0,0.125 0.09375,0.125 0.25,0.125 0.46875,0 0.484375,0.0625 0.484375,0.171875 0,0.0625 -0.078125,0.40625 -0.125,0.609375 l -0.828125,3.25 c -0.109375,0.5 -0.15625,0.671875 -0.15625,1.015625 0,0.9375 0.53125,1.5625 1.265625,1.5625 1.171875,0 2.40625,-1.484375 2.40625,-2.921875 0,-0.90625 -0.53125,-1.59375 -1.328125,-1.59375 -0.453125,0 -0.875,0.296875 -1.171875,0.59375 z M 1.453125,-3.046875 C 1.5,-3.265625 1.5,-3.28125 1.59375,-3.390625 2.078125,-4.03125 2.53125,-4.1875 2.796875,-4.1875 c 0.359375,0 0.625,0.296875 0.625,0.9375 0,0.59375 -0.328125,1.734375 -0.515625,2.109375 -0.328125,0.671875 -0.78125,1.03125 -1.171875,1.03125 -0.34375,0 -0.671875,-0.265625 -0.671875,-1 0,-0.203125 0,-0.390625 0.15625,-1.015625 z m 0,0"
             id="id-9847af9b-eeef-410f-bab7-7903b47b7587" />
        </g>
      </g>
    </defs>
    <g
       fill="#000000"
       fill-opacity="1"
       id="id-a1cf200e-36b9-4bb6-9912-cf847111da75"
       transform="translate(-149.696,-127.281)">
      <g
         transform="translate(148.712,134.765)"
         id="g5001">
        <path
           d="m 3.296875,2.390625 c 0,-0.03125 0,-0.046875 -0.171875,-0.21875 C 1.890625,0.921875 1.5625,-0.96875 1.5625,-2.5 c 0,-1.734375 0.375,-3.46875 1.609375,-4.703125 0.125,-0.125 0.125,-0.140625 0.125,-0.171875 0,-0.078125 -0.03125,-0.109375 -0.09375,-0.109375 -0.109375,0 -1,0.6875 -1.59375,1.953125 -0.5,1.09375 -0.625,2.203125 -0.625,3.03125 0,0.78125 0.109375,1.984375 0.65625,3.125 C 2.25,1.84375 3.09375,2.5 3.203125,2.5 c 0.0625,0 0.09375,-0.03125 0.09375,-0.109375 z m 0,0"
           id="id-4b25dcd0-1aa1-4a9f-834c-a84089260790" />
      </g>
    </g>
    <g
       fill="#000000"
       fill-opacity="1"
       id="id-ad29980b-e386-4242-80d5-d18ef75fde15"
       transform="translate(-149.696,-127.281)">
      <g
         transform="translate(152.587,134.765)"
         id="g3884">
        <path
           d="M 3.71875,-3.765625 C 3.53125,-4.140625 3.25,-4.40625 2.796875,-4.40625 c -1.15625,0 -2.390625,1.46875 -2.390625,2.921875 0,0.9375 0.546875,1.59375 1.3125,1.59375 0.203125,0 0.703125,-0.046875 1.296875,-0.75 0.078125,0.421875 0.4375,0.75 0.90625,0.75 0.359375,0 0.578125,-0.234375 0.75,-0.546875 0.15625,-0.359375 0.296875,-0.96875 0.296875,-0.984375 0,-0.109375 -0.09375,-0.109375 -0.125,-0.109375 -0.09375,0 -0.109375,0.046875 -0.140625,0.1875 -0.171875,0.640625 -0.34375,1.234375 -0.75,1.234375 -0.28125,0 -0.296875,-0.265625 -0.296875,-0.453125 0,-0.21875 0.015625,-0.3125 0.125,-0.75 C 3.890625,-1.71875 3.90625,-1.828125 4,-2.203125 L 4.359375,-3.59375 c 0.0625,-0.28125 0.0625,-0.296875 0.0625,-0.34375 0,-0.171875 -0.109375,-0.265625 -0.28125,-0.265625 -0.25,0 -0.390625,0.21875 -0.421875,0.4375 z M 3.078125,-1.1875 C 3.015625,-1 3.015625,-0.984375 2.875,-0.8125 2.4375,-0.265625 2.03125,-0.109375 1.75,-0.109375 c -0.5,0 -0.640625,-0.546875 -0.640625,-0.9375 0,-0.5 0.3125,-1.71875 0.546875,-2.1875 0.3125,-0.578125 0.75,-0.953125 1.15625,-0.953125 0.640625,0 0.78125,0.8125 0.78125,0.875 0,0.0625 -0.015625,0.125 -0.03125,0.171875 z m 0,0"
           id="id-d3023584-714a-49b7-9ccf-d7e9d236f6ad" />
      </g>
      <g
         transform="translate(157.853,134.765)"
         id="g3860">
        <path
           d="m 2.03125,-0.015625 c 0,-0.65625 -0.25,-1.046875 -0.640625,-1.046875 -0.328125,0 -0.53125,0.25 -0.53125,0.53125 C 0.859375,-0.265625 1.0625,0 1.390625,0 1.5,0 1.640625,-0.046875 1.734375,-0.125 1.765625,-0.15625 1.78125,-0.15625 1.78125,-0.15625 c 0.015625,0 0.015625,0 0.015625,0.140625 0,0.75 -0.34375,1.34375 -0.671875,1.671875 -0.109375,0.109375 -0.109375,0.125 -0.109375,0.15625 0,0.078125 0.046875,0.109375 0.09375,0.109375 0.109375,0 0.921875,-0.765625 0.921875,-1.9375 z m 0,0"
           id="id-8de3ef93-69fe-4cf3-b0f1-a7a695229e0d" />
      </g>
    </g>
    <g
       fill="#000000"
       fill-opacity="1"
       id="id-1d3cc279-d8f7-452d-aece-11469a6d4f47"
       transform="translate(-149.696,-127.281)">
      <g
         transform="translate(162.285,134.765)"
         id="g1284">
        <path
           d="m 2.375,-6.8125 c 0,0 0,-0.109375 -0.125,-0.109375 -0.21875,0 -0.953125,0.078125 -1.21875,0.109375 -0.078125,0 -0.1875,0.015625 -0.1875,0.1875 0,0.125 0.09375,0.125 0.25,0.125 0.46875,0 0.484375,0.0625 0.484375,0.171875 0,0.0625 -0.078125,0.40625 -0.125,0.609375 l -0.828125,3.25 c -0.109375,0.5 -0.15625,0.671875 -0.15625,1.015625 0,0.9375 0.53125,1.5625 1.265625,1.5625 1.171875,0 2.40625,-1.484375 2.40625,-2.921875 0,-0.90625 -0.53125,-1.59375 -1.328125,-1.59375 -0.453125,0 -0.875,0.296875 -1.171875,0.59375 z M 1.453125,-3.046875 C 1.5,-3.265625 1.5,-3.28125 1.59375,-3.390625 2.078125,-4.03125 2.53125,-4.1875 2.796875,-4.1875 c 0.359375,0 0.625,0.296875 0.625,0.9375 0,0.59375 -0.328125,1.734375 -0.515625,2.109375 -0.328125,0.671875 -0.78125,1.03125 -1.171875,1.03125 -0.34375,0 -0.671875,-0.265625 -0.671875,-1 0,-0.203125 0,-0.390625 0.15625,-1.015625 z m 0,0"
           id="id-b1dd436f-4fac-41ce-a12c-1785b66e3a16" />
      </g>
    </g>
    <g
       fill="#000000"
       fill-opacity="1"
       id="id-77dae494-1075-44e0-aa8c-b01907bcabed"
       transform="translate(-149.696,-127.281)">
      <g
         transform="translate(166.556,134.765)"
         id="g3553">
        <path
           d="m 2.875,-2.5 c 0,-0.765625 -0.109375,-1.96875 -0.65625,-3.109375 -0.59375,-1.21875 -1.453125,-1.875 -1.546875,-1.875 -0.0625,0 -0.109375,0.046875 -0.109375,0.109375 0,0.03125 0,0.046875 0.1875,0.234375 0.984375,0.984375 1.546875,2.5625 1.546875,4.640625 0,1.71875 -0.359375,3.46875 -1.59375,4.71875 C 0.5625,2.34375 0.5625,2.359375 0.5625,2.390625 0.5625,2.453125 0.609375,2.5 0.671875,2.5 0.765625,2.5 1.671875,1.8125 2.25,0.546875 2.765625,-0.546875 2.875,-1.65625 2.875,-2.5 Z m 0,0"
           id="id-3b37c6ea-8c70-4f72-93a7-6d007db6e764" />
      </g>
    </g>
  </g>
</svg>
