<?xml version="1.0" encoding="UTF-8" standalone="no"?>
<!-- Created with Inkscape (http://www.inkscape.org/) -->

<svg
   width="297mm"
   height="210mm"
   viewBox="0 0 1122.5197 793.70081"
   version="1.1"
   id="svg1"
   inkscape:version="1.3 (0e150ed6c4, 2023-07-21)"
   sodipodi:docname="foldIncompat.svg"
   xmlns:inkscape="http://www.inkscape.org/namespaces/inkscape"
   xmlns:sodipodi="http://sodipodi.sourceforge.net/DTD/sodipodi-0.dtd"
   xmlns:xlink="http://www.w3.org/1999/xlink"
   xmlns="http://www.w3.org/2000/svg"
   xmlns:svg="http://www.w3.org/2000/svg"
   xmlns:ns1="http://www.iki.fi/pav/software/textext/">
  <sodipodi:namedview
     id="namedview1"
     pagecolor="#505050"
     bordercolor="#ffffff"
     borderopacity="1"
     inkscape:showpageshadow="0"
     inkscape:pageopacity="0"
     inkscape:pagecheckerboard="1"
     inkscape:deskcolor="#505050"
     inkscape:document-units="mm"
     inkscape:zoom="1.1082211"
     inkscape:cx="495.83968"
     inkscape:cy="426.35896"
     inkscape:window-width="1262"
     inkscape:window-height="1387"
     inkscape:window-x="1282"
     inkscape:window-y="762"
     inkscape:window-maximized="1"
     inkscape:current-layer="layer3" />
  <defs
     id="defs1">
    <marker
       style="overflow:visible"
       id="marker54"
       refX="0"
       refY="0"
       orient="auto-start-reverse"
       inkscape:stockid="Triangle arrow"
       markerWidth="1"
       markerHeight="1"
       viewBox="0 0 1 1"
       inkscape:isstock="true"
       inkscape:collect="always"
       preserveAspectRatio="xMidYMid">
      <path
         transform="scale(0.5)"
         style="fill:context-stroke;fill-rule:evenodd;stroke:context-stroke;stroke-width:1pt"
         d="M 5.77,0 -2.88,5 V -5 Z"
         id="path54" />
    </marker>
    <marker
       style="overflow:visible"
       id="Triangle"
       refX="0"
       refY="0"
       orient="auto-start-reverse"
       inkscape:stockid="Triangle arrow"
       markerWidth="1"
       markerHeight="1"
       viewBox="0 0 1 1"
       inkscape:isstock="true"
       inkscape:collect="always"
       preserveAspectRatio="xMidYMid">
      <path
         transform="scale(0.5)"
         style="fill:context-stroke;fill-rule:evenodd;stroke:context-stroke;stroke-width:1pt"
         d="M 5.77,0 -2.88,5 V -5 Z"
         id="path135" />
    </marker>
  </defs>
  <g
     inkscape:groupmode="layer"
     id="layer3"
     inkscape:label="bg">
    <rect
       style="fill:#ffffff;stroke:none;stroke-width:3.64724"
       id="rect60"
       width="1072.3439"
       height="678.08405"
       x="2.5725758"
       y="57.912899" />
    <text
       xml:space="preserve"
       style="font-style:normal;font-variant:normal;font-weight:normal;font-stretch:normal;font-size:42.6667px;line-height:0;font-family:'Courier New';-inkscape-font-specification:'Courier New';letter-spacing:-0.11px;word-spacing:-0.04px;fill:#ffffff;stroke:#000000;stroke-width:3.64724"
       x="64.03067"
       y="638.74854"
       id="text60"><tspan
         sodipodi:role="line"
         id="tspan60"
         x="64.03067"
         y="638.74854"
         style="font-style:normal;font-variant:normal;font-weight:normal;font-stretch:normal;font-size:42.6667px;font-family:Cantarell;-inkscape-font-specification:Cantarell;fill:#000000;stroke:none">Partial Result : B</tspan></text>
    <use
       x="0"
       y="0"
       xlink:href="#text60"
       id="use61"
       transform="translate(99.842463,-463.3899)" />
  </g>
  <use
     x="0"
     y="0"
     xlink:href="#g30"
     id="use30"
     transform="translate(135.05924,-0.44822781)" />
  <g
     inkscape:groupmode="layer"
     id="layer4"
     inkscape:label="ops">
    <g
       id="g30"
       transform="matrix(0.73375385,0,0,0.73375385,-151.14618,120.82322)">
      <rect
         style="fill:#ffffff;stroke:#000000;stroke-width:4.44047"
         id="use22"
         width="184.0611"
         height="138.04584"
         x="406.75339"
         y="467.10049" />
      <text
         xml:space="preserve"
         style="font-style:normal;font-variant:normal;font-weight:normal;font-stretch:normal;font-size:85.3333px;line-height:0;font-family:'Courier New';-inkscape-font-specification:'Courier New';letter-spacing:-0.11px;word-spacing:-0.04px;fill:none;stroke:#000000;stroke-width:8.6922"
         x="444.14603"
         y="557.81854"
         id="use23"><tspan
           sodipodi:role="line"
           id="tspan24"
           x="444.14603"
           y="557.81854"
           style="font-style:normal;font-variant:normal;font-weight:normal;font-stretch:normal;font-size:85.3333px;font-family:'Courier New';-inkscape-font-specification:'Courier New';letter-spacing:-0.11px;word-spacing:-0.04px;fill:#000000;stroke:none;stroke-width:8.6922">op</tspan></text>
      <path
         style="fill:#000000;stroke:none;stroke-width:3.64724"
         d="m 591.71372,512.67624 v 40.98543 l 37.40089,-21.59341 z"
         id="use24" />
      <path
         style="fill:#ffffff;stroke:none;stroke-width:3.64724"
         d="m 404.60481,512.67624 v 40.98543 l 37.40089,-21.59341 z"
         id="use25" />
      <path
         style="fill:#ffffff;stroke:none;stroke-width:5.45797"
         d="m 475.05802,465.0645 v 26.61928 c 0,0 22.84441,40.91553 46.46702,0 v -26.72384 z"
         id="use26" />
      <path
         style="fill:none;stroke:#000000;stroke-width:3.75864"
         d="m 405.75541,511.37825 36.26565,20.78467 -36.67233,23.30458"
         id="path26" />
      <path
         style="fill:#ffffff;stroke:#000000;stroke-width:3.581"
         d="m 475.60117,464.89315 -0.0799,26.53606 c 0,0 21.30497,37.74019 45.07732,-0.52589 l -0.10637,-26.00186"
         id="path27"
         sodipodi:nodetypes="cccc" />
    </g>
    <rect
       style="fill:#ffffff;stroke:#000000;stroke-width:3.25821"
       id="rect46"
       width="135.05554"
       height="101.29166"
       x="496.72226"
       y="213.19043" />
    <text
       xml:space="preserve"
       style="font-style:normal;font-variant:normal;font-weight:normal;font-stretch:normal;font-size:62.6136px;line-height:0;font-family:'Courier New';-inkscape-font-specification:'Courier New';letter-spacing:-0.0807129px;word-spacing:-0.0293502px;fill:none;stroke:#000000;stroke-width:6.37793"
       x="524.15924"
       y="279.75516"
       id="text47"><tspan
         sodipodi:role="line"
         id="tspan47"
         x="524.15924"
         y="279.75516"
         style="font-style:normal;font-variant:normal;font-weight:normal;font-stretch:normal;font-size:62.6136px;font-family:'Courier New';-inkscape-font-specification:'Courier New';letter-spacing:-0.0807129px;word-spacing:-0.0293502px;fill:#000000;stroke:none;stroke-width:6.37793">op</tspan></text>
    <path
       style="fill:#000000;stroke:none;stroke-width:2.67618"
       d="m 632.43762,246.63181 v 30.07322 l 27.44305,-15.84425 z"
       id="path47" />
    <path
       style="fill:#ffffff;stroke:none;stroke-width:2.67618"
       d="m 495.14574,246.63181 v 30.07322 l 27.44304,-15.84425 z"
       id="path48" />
    <path
       style="fill:#ffffff;stroke:none;stroke-width:4.00481"
       d="m 546.84105,211.69652 v 19.532 c 0,0 16.76217,30.02192 34.09536,0 V 211.6198 Z"
       id="path49" />
    <path
       style="fill:none;stroke:#000000;stroke-width:2.75792"
       d="m 495.98999,245.67941 26.61006,15.25083 -26.90846,17.09983"
       id="path50"
       sodipodi:nodetypes="ccc" />
    <path
       style="fill:#ffffff;stroke:#000000;stroke-width:2.62757"
       d="m 547.23959,211.57079 -0.0586,19.47093 c 0,0 15.63261,27.69201 33.07566,-0.38587 l -0.078,-19.07896"
       id="path51"
       sodipodi:nodetypes="cccc" />
    <text
       xml:space="preserve"
       style="font-style:normal;font-variant:normal;font-weight:bold;font-stretch:normal;font-size:125.213px;line-height:0;font-family:'Courier New';-inkscape-font-specification:'Courier New Bold';letter-spacing:-0.161407px;word-spacing:-0.0586936px;fill:#aa0000;stroke:none;stroke-width:5.35175"
       x="686.14551"
       y="533.84814"
       id="text51"><tspan
         id="tspan51"
         x="686.14551"
         y="533.84814"
         style="font-style:normal;font-variant:normal;font-weight:bold;font-stretch:normal;font-family:'Courier New';-inkscape-font-specification:'Courier New Bold';fill:#aa0000;stroke-width:5.35175"
         sodipodi:role="line">X</tspan></text>
    <path
       style="fill:none;stroke:#000000;stroke-width:3.1765;marker-end:url(#Triangle)"
       d="m 662.65474,262.58323 c 0,0 60.22868,-12.70846 60.692,154.46359"
       id="path52"
       sodipodi:nodetypes="cc" />
    <path
       style="fill:none;stroke:#000000;stroke-width:3.1765;marker-end:url(#marker54)"
       d="m 453.5033,511.16565 c 0,0 137.9244,-28.93818 210.05843,-20.79128"
       id="path53"
       sodipodi:nodetypes="cc" />
    <path
       style="fill:#ffffff;stroke:#000000;stroke-width:3.64724"
       d="M 872.40745,484.42602 V 438.22868 H 1037.9222 V 557.3609 H 872.95745 v -42.30861"
       id="path55" />
  </g>
  <g
     inkscape:label="Layer 1"
     inkscape:groupmode="layer"
     id="layer1">
    <rect
       style="fill:#ffffff;stroke:#000000;stroke-width:3.25821"
       id="rect6"
       width="135.05554"
       height="101.29166"
       x="147.78548"
       y="359.96313" />
    <text
       xml:space="preserve"
       style="font-style:normal;font-variant:normal;font-weight:normal;font-stretch:normal;font-size:74.611px;line-height:0;font-family:'Courier New';-inkscape-font-specification:'Courier New';letter-spacing:0px;fill:none;stroke:#000000;stroke-width:6.37794"
       x="191.1068"
       y="430.97168"
       id="text6"><tspan
         sodipodi:role="line"
         id="tspan6"
         x="191.1068"
         y="430.97168"
         style="font-style:normal;font-variant:normal;font-weight:normal;font-stretch:normal;font-family:'Courier New';-inkscape-font-specification:'Courier New';fill:#000000;stroke:none;stroke-width:6.37794">A</tspan></text>
    <path
       style="fill:#000000;stroke:none;stroke-width:4.00481"
       d="m 196.60658,462.36211 v 19.53201 c 0,0 16.76217,30.02192 34.09536,0 v -19.60873 z"
       id="path7" />
    <rect
       style="fill:#ffffff;stroke:#000000;stroke-width:3.25821"
       id="use7"
       width="135.05554"
       height="101.29166"
       x="282.29831"
       y="359.96313" />
    <use
       x="0"
       y="0"
       xlink:href="#text6"
       id="use8"
       transform="translate(134.51283)" />
    <use
       x="0"
       y="0"
       xlink:href="#path7"
       id="use9"
       transform="translate(134.51283)" />
    <g
       id="g31"
       transform="matrix(0.73375385,0,0,0.73375385,-43.827062,120.77032)">
      <rect
         style="fill:#ffffff;stroke:#000000;stroke-width:4.44047"
         id="use20"
         width="184.0611"
         height="138.04584"
         x="76.534416"
         y="467.10049" />
      <text
         xml:space="preserve"
         style="font-style:normal;font-variant:normal;font-weight:normal;font-stretch:normal;font-size:85.3333px;line-height:0;font-family:'Courier New';-inkscape-font-specification:'Courier New';letter-spacing:-0.11px;word-spacing:-0.04px;fill:none;stroke:#000000;stroke-width:8.6922"
         x="137.6535"
         y="557.81854"
         id="use21"><tspan
           sodipodi:role="line"
           id="tspan22"
           x="137.6535"
           y="557.81854"
           style="font-style:normal;font-variant:normal;font-weight:normal;font-stretch:normal;font-size:85.3333px;font-family:'Courier New';-inkscape-font-specification:'Courier New';letter-spacing:-0.11px;word-spacing:-0.04px;fill:#000000;stroke:none;stroke-width:8.6922"
           dx="-0.029999999">z</tspan></text>
      <path
         style="fill:#000000;stroke:none;stroke-width:3.64724"
         d="m 261.49473,512.67624 v 40.98543 l 37.40089,-21.59341 z"
         id="path22" />
    </g>
    <rect
       style="fill:#ffffff;stroke:#000000;stroke-width:3.25821"
       id="use33"
       width="135.05554"
       height="101.29166"
       x="497.19705"
       y="109.59354" />
    <text
       xml:space="preserve"
       style="font-style:normal;font-variant:normal;font-weight:normal;font-stretch:normal;font-size:74.611px;line-height:0;font-family:'Courier New';-inkscape-font-specification:'Courier New';letter-spacing:0px;fill:none;stroke:#000000;stroke-width:6.37794"
       x="540.51837"
       y="180.60208"
       id="use34"><tspan
         sodipodi:role="line"
         id="tspan46"
         x="540.51837"
         y="180.60208"
         style="font-style:normal;font-variant:normal;font-weight:normal;font-stretch:normal;font-family:'Courier New';-inkscape-font-specification:'Courier New';fill:#000000;stroke:none;stroke-width:6.37794">A</tspan></text>
    <path
       style="fill:#000000;stroke:none;stroke-width:4.00481"
       d="m 546.01816,211.99254 v 19.532 c 0,0 16.76217,30.02193 34.09536,0 v -19.60872 z"
       id="use35" />
    <g
       id="use39"
       transform="matrix(0.73375385,0,0,0.73375385,303.87958,-130.10016)">
      <rect
         style="fill:#ffffff;stroke:#000000;stroke-width:4.44047"
         id="rect43"
         width="184.0611"
         height="138.04584"
         x="76.534416"
         y="467.10049" />
      <text
         xml:space="preserve"
         style="font-style:normal;font-variant:normal;font-weight:normal;font-stretch:normal;font-size:85.3333px;line-height:0;font-family:'Courier New';-inkscape-font-specification:'Courier New';letter-spacing:-0.11px;word-spacing:-0.04px;fill:none;stroke:#000000;stroke-width:8.6922"
         x="137.6535"
         y="557.81854"
         id="text43"><tspan
           sodipodi:role="line"
           id="tspan43"
           x="137.6535"
           y="557.81854"
           style="font-style:normal;font-variant:normal;font-weight:normal;font-stretch:normal;font-size:85.3333px;font-family:'Courier New';-inkscape-font-specification:'Courier New';letter-spacing:-0.11px;word-spacing:-0.04px;fill:#000000;stroke:none;stroke-width:8.6922"
           dx="-0.029999999">z</tspan></text>
      <path
         style="fill:#000000;stroke:none;stroke-width:3.64724"
         d="m 261.49473,512.67624 v 40.98543 l 37.40089,-21.59341 z"
         id="path44" />
    </g>
    <use
       x="0"
       y="0"
       xlink:href="#path50"
       id="use54"
       transform="translate(376.08578,237.40053)" />
    <text
       xml:space="preserve"
       style="font-style:normal;font-variant:normal;font-weight:bold;font-stretch:normal;font-size:85.3333px;line-height:0;font-family:'Courier New';-inkscape-font-specification:'Courier New Bold';letter-spacing:-0.11px;word-spacing:-0.04px;fill:none;stroke:#000000;stroke-width:3.64724"
       x="973.72247"
       y="522.09851"
       id="text54"><tspan
         sodipodi:role="line"
         id="tspan54"
         x="973.72247"
         y="522.09851"
         style="font-style:normal;font-variant:normal;font-weight:normal;font-stretch:normal;font-family:'Courier New';-inkscape-font-specification:'Courier New';fill:#000000;stroke:none">B</tspan></text>
    <g
       transform="matrix(5.3869466,0,0,5.3869466,917.45951,483.02326)"
       ns1:version="1.9.0"
       ns1:texconverter="pdflatex"
       ns1:pdfconverter="inkscape"
       ns1:text="$\\Rightarrow$"
       ns1:preamble="/home/sankalp/.config/inkscape/extensions/textext/default_packages.tex"
       ns1:scale="2.0"
       ns1:alignment="middle center"
       ns1:stroke-to-path="0"
       ns1:inkscapeversion="1.3"
       id="g2143"
       ns1:jacobian_sqrt="2.66666">
      <defs
         id="id-609b2395-b2ab-4b53-9f5b-2a8845027445">
        <g
           id="id-2470ca30-5040-479c-a539-836a2e6a3d8a">
          <g
             id="id-798bee47-fba8-42df-8226-57da43c31f9f" />
          <g
             id="id-71cd6824-f2de-4ec2-bb42-fdecf029a93d">
            <path
               d="M 7.234375,-3.265625 C 7.65625,-2.90625 8.171875,-2.640625 8.5,-2.5 8.140625,-2.328125 7.640625,-2.078125 7.234375,-1.71875 H 0.90625 c -0.171875,0 -0.359375,0 -0.359375,0.1875 0,0.203125 0.1875,0.203125 0.34375,0.203125 H 6.78125 C 6.3125,-0.875 5.796875,0.015625 5.796875,0.140625 5.796875,0.25 5.921875,0.25 5.984375,0.25 6.0625,0.25 6.125,0.25 6.171875,0.171875 6.375,-0.203125 6.65625,-0.734375 7.3125,-1.3125 8,-1.921875 8.65625,-2.1875 9.1875,-2.34375 c 0.15625,-0.0625 0.171875,-0.0625 0.1875,-0.09375 0.03125,0 0.03125,-0.03125 0.03125,-0.0625 0,-0.015625 0,-0.03125 -0.015625,-0.046875 l -0.03125,-0.03125 c -0.015625,0 -0.03125,-0.015625 -0.21875,-0.078125 -1.34375,-0.390625 -2.34375,-1.296875 -2.90625,-2.375 -0.109375,-0.1875 -0.109375,-0.203125 -0.25,-0.203125 -0.0625,0 -0.1875,0 -0.1875,0.109375 0,0.125 0.5,1 0.984375,1.46875 H 0.890625 c -0.15625,0 -0.34375,0 -0.34375,0.203125 0,0.1875 0.1875,0.1875 0.359375,0.1875 z m 0,0"
               id="id-235690fa-afa3-4433-92e7-7334728cde2a" />
          </g>
        </g>
      </defs>
      <g
         fill="#000000"
         fill-opacity="1"
         id="id-75cfc2dd-13ab-4148-9fbc-1ab791e6d6f2"
         transform="translate(-149.259,-129.531)">
        <g
           transform="translate(148.712,134.765)"
           id="g118">
          <path
             d="M 7.234375,-3.265625 C 7.65625,-2.90625 8.171875,-2.640625 8.5,-2.5 8.140625,-2.328125 7.640625,-2.078125 7.234375,-1.71875 H 0.90625 c -0.171875,0 -0.359375,0 -0.359375,0.1875 0,0.203125 0.1875,0.203125 0.34375,0.203125 H 6.78125 C 6.3125,-0.875 5.796875,0.015625 5.796875,0.140625 5.796875,0.25 5.921875,0.25 5.984375,0.25 6.0625,0.25 6.125,0.25 6.171875,0.171875 6.375,-0.203125 6.65625,-0.734375 7.3125,-1.3125 8,-1.921875 8.65625,-2.1875 9.1875,-2.34375 c 0.15625,-0.0625 0.171875,-0.0625 0.1875,-0.09375 0.03125,0 0.03125,-0.03125 0.03125,-0.0625 0,-0.015625 0,-0.03125 -0.015625,-0.046875 l -0.03125,-0.03125 c -0.015625,0 -0.03125,-0.015625 -0.21875,-0.078125 -1.34375,-0.390625 -2.34375,-1.296875 -2.90625,-2.375 -0.109375,-0.1875 -0.109375,-0.203125 -0.25,-0.203125 -0.0625,0 -0.1875,0 -0.1875,0.109375 0,0.125 0.5,1 0.984375,1.46875 H 0.890625 c -0.15625,0 -0.34375,0 -0.34375,0.203125 0,0.1875 0.1875,0.1875 0.359375,0.1875 z m 0,0"
             id="id-ef98cfa2-ff57-4336-a90a-07bef8910a6e" />
        </g>
      </g>
    </g>
  </g>
  <g
     inkscape:groupmode="layer"
     id="layer2"
     inkscape:label="Layer 2" />
  <g
     id="use55"
     transform="matrix(0.73375385,0,0,0.73375385,316.23036,286.46401)">
    <g
       id="g60"
       transform="translate(60.126905,-51.880464)">
      <rect
         style="fill:#ffffff;stroke:#000000;stroke-width:4.44047"
         id="rect55"
         width="184.0611"
         height="138.04584"
         x="406.75339"
         y="467.10049" />
      <text
         xml:space="preserve"
         style="font-style:normal;font-variant:normal;font-weight:normal;font-stretch:normal;font-size:61.2668px;line-height:0;font-family:'Courier New';-inkscape-font-specification:'Courier New';letter-spacing:-0.0789768px;word-spacing:-0.0287188px;fill:none;stroke:#000000;stroke-width:6.24075"
         x="442.94089"
         y="557.43304"
         id="text55"><tspan
           sodipodi:role="line"
           id="tspan55"
           x="442.94089"
           y="557.43304"
           style="font-style:normal;font-variant:normal;font-weight:normal;font-stretch:normal;font-size:61.2668px;font-family:'Courier New';-inkscape-font-specification:'Courier New';letter-spacing:-0.0789768px;word-spacing:-0.0287188px;fill:#000000;stroke:none;stroke-width:6.24075">???</tspan></text>
      <path
         style="fill:#000000;stroke:none;stroke-width:3.64724"
         d="m 591.71372,512.67624 v 40.98543 l 37.40089,-21.59341 z"
         id="path56" />
      <path
         style="fill:#ffffff;stroke:none;stroke-width:3.64724"
         d="m 404.60481,512.67624 v 40.98543 l 37.40089,-21.59341 z"
         id="path57" />
      <path
         style="fill:#ffffff;stroke:none;stroke-width:5.45797"
         d="m 475.05802,465.0645 v 26.61928 c 0,0 22.84441,40.91553 46.46702,0 v -26.72384 z"
         id="path58" />
      <path
         style="fill:none;stroke:#000000;stroke-width:3.75864"
         d="m 405.75541,511.37825 36.26565,20.78467 -36.67233,23.30458"
         id="path59" />
      <path
         style="fill:none;stroke:#000000;stroke-width:4.23044"
         d="m 523.61721,466.66299 -23.39362,40.81783 -26.22984,-41.27556"
         id="use60" />
    </g>
  </g>
</svg>
